<svg width="250" height="56" viewBox="0 0 250 56" fill="none" xmlns="http://www.w3.org/2000/svg">
<g clip-path="url(#clip0_343_75)">
<g opacity="0.36">
<path opacity="0.76" d="M238.36 102.67C241.766 96.9577 246.235 87.6312 247.544 75.4549C249.59 56.3615 236.119 52.1516 233.256 25.9078C232.828 21.9829 232.453 16.2057 228.385 10.7393C223.01 3.51129 213.372 -0.504219 211.39 1.58129C209.486 3.56318 213.593 12.2419 219.979 17.4621C225.328 21.8145 227.893 20.1824 233.101 24.47C240.38 30.4675 241.987 39.1593 243.347 38.7188C244.344 38.395 242.544 34.0815 244.448 28.4855C245.976 24.0295 249.111 20.9467 249.137 20.9726C249.163 20.9856 248.049 22.0348 247.595 23.6799C246.779 26.6592 248.878 28.7317 249.655 31.6203C250.821 36.0116 248.891 42.2293 245.989 43.1749C241.52 44.6257 232.997 34.1851 227.207 31.7888C226.093 31.3224 224.914 30.8949 224.914 30.8949C222.207 29.9104 220.147 29.3924 219.603 29.237C216.144 28.3173 212.906 26.2706 209.668 24.5478C200.25 19.5607 194.642 19.3664 194.784 18.2265C194.978 16.6721 205.743 14.2109 215.432 18.4208C217.66 19.3923 219.966 20.7653 233.645 36.1152C242.531 46.1023 243.93 48.1749 243.347 48.9262C242.09 50.5842 232.142 45.0012 231.002 44.3536C223.567 40.1566 223.126 38.0194 218.048 35.3769C208.696 30.5193 198.087 31.4519 197.634 33.2006C197.297 34.496 202.802 35.2732 207.414 41.2706C210.263 44.9753 209.797 46.8018 212.323 48.4599C215.652 50.649 218.683 48.9132 224.085 48.9262C233.113 48.9521 242.194 53.8356 242.012 56.7631C241.87 58.9652 236.43 61.1932 231.365 61.1155C222.284 60.973 219.81 53.4859 209.81 49.4962C197.31 44.5221 184.201 49.4703 184.201 50.7786C184.201 51.9574 194.784 50.105 203.657 57.061C207.31 59.9237 207.608 61.8667 211.624 63.9392C216.688 66.5429 221.663 66.2191 225.652 65.9212C232.66 65.3771 239.629 64.8461 243.813 59.3408C248.567 53.0973 246.417 44.7552 245.976 43.149" stroke="#ED7642" stroke-width="1.29535" stroke-miterlimit="10"/>
<path d="M213.924 186C224.482 168.296 238.332 139.391 242.387 101.654C248.73 42.4797 206.979 29.4324 198.107 -51.9024C196.782 -64.0665 195.618 -81.9712 183.012 -98.9126C166.351 -121.314 136.483 -133.759 130.341 -127.295C124.44 -121.153 137.166 -94.256 156.957 -78.0774C173.538 -64.5885 181.486 -69.6466 197.625 -56.3585C220.187 -37.7711 225.165 -10.8335 229.38 -12.1984C232.471 -13.202 226.891 -26.5706 232.792 -43.9135C237.529 -57.7235 247.245 -67.2779 247.325 -67.1976C247.405 -67.1574 243.953 -63.9058 242.547 -58.8073C240.018 -49.5738 246.522 -43.1505 248.931 -34.1981C252.544 -20.5887 246.562 -1.31871 237.569 1.61191C223.719 6.10821 197.304 -26.2492 179.358 -33.6762C175.906 -35.1214 172.253 -36.4465 172.253 -36.4465C163.862 -39.4975 157.479 -41.103 155.793 -41.5847C145.074 -44.435 135.038 -50.778 125.002 -56.1174C95.8157 -71.5734 78.4327 -72.1756 78.8743 -75.7084C79.4765 -80.5259 112.837 -88.1534 142.866 -75.1061C149.771 -72.0952 156.917 -67.8401 199.311 -20.2677C226.851 10.6845 231.186 17.1079 229.38 19.4363C225.486 24.5749 194.654 7.27206 191.121 5.26479C168.078 -7.74236 166.713 -14.3661 150.976 -22.5558C121.99 -37.6103 89.1115 -34.7201 87.7064 -29.3004C86.6626 -25.2859 103.724 -22.8772 118.016 -4.28986C126.848 7.19176 125.403 12.8525 133.231 17.9911C143.549 24.7757 152.943 19.3961 169.683 19.4363C197.665 19.5166 225.807 34.6516 225.245 43.7245C224.803 50.5493 207.942 57.4542 192.245 57.2134C164.103 56.7718 156.435 33.5678 125.443 21.2029C86.7026 5.78706 46.0755 21.1226 46.0755 25.1773C46.0755 28.8305 78.8742 23.0896 106.374 44.6478C117.695 53.5199 118.618 59.5415 131.064 65.9648C146.76 74.034 162.176 73.0305 174.541 72.1072C196.26 70.4211 217.858 68.7753 230.825 51.7134C245.558 32.3633 238.894 6.50957 237.529 1.53152" stroke="#ED7642" stroke-opacity="0.2" stroke-width="4.01455" stroke-miterlimit="10"/>
</g>
</g>
<defs>
<clipPath id="clip0_343_75">
<rect width="250" height="56" fill="white"/>
</clipPath>
</defs>
</svg>
