<svg width="250" height="56" viewBox="0 0 250 56" fill="none" xmlns="http://www.w3.org/2000/svg">
<g clip-path="url(#clip0_343_74)">
<g opacity="0.36">
<path opacity="0.76" d="M11.6404 102.67C8.23359 96.9577 3.76468 87.6312 2.45638 75.4549C0.409731 56.3615 13.8813 52.1516 16.744 25.9078C17.1715 21.9829 17.5472 16.2057 21.6146 10.7393C26.9903 3.51129 36.6276 -0.504219 38.6095 1.58129C40.5137 3.56318 36.4074 12.2419 30.0214 17.4621C24.6716 21.8145 22.1068 20.1824 16.8995 24.47C9.61961 30.4675 8.01341 39.1593 6.6533 38.7188C5.65588 38.395 7.45645 34.0815 5.55228 28.4855C4.02377 24.0295 0.889035 20.9467 0.863128 20.9726C0.837221 20.9856 1.95122 22.0348 2.4046 23.6799C3.22067 26.6592 1.12217 28.7317 0.344957 31.6203C-0.820856 36.0116 1.10923 42.2293 4.01082 43.1749C8.47977 44.6257 17.0032 34.1851 22.7934 31.7888C23.9074 31.3224 25.0861 30.8949 25.0861 30.8949C27.7934 29.9104 29.853 29.3924 30.3971 29.237C33.8556 28.3173 37.094 26.2706 40.3324 24.5478C49.7495 19.5607 55.3584 19.3664 55.2159 18.2265C55.0216 16.6721 44.2572 14.2109 34.568 18.4208C32.34 19.3923 30.0343 20.7653 16.3554 36.1152C7.46936 46.1023 6.07039 48.1749 6.6533 48.9262C7.90979 50.5842 17.8581 45.0012 18.998 44.3536C26.4333 40.1566 26.8737 38.0194 31.9515 35.3769C41.3039 30.5193 51.9127 31.4519 52.3661 33.2006C52.7029 34.496 47.1977 35.2732 42.5863 41.2706C39.7365 44.9753 40.2028 46.8018 37.6769 48.4599C34.3479 50.649 31.3167 48.9132 25.9151 48.9262C16.8865 48.9521 7.8062 53.8356 7.98754 56.7631C8.13003 58.9652 13.5705 61.1932 18.6353 61.1155C27.7157 60.973 30.1898 53.4859 40.1899 49.4962C52.69 44.5221 65.7989 49.4703 65.7989 50.7786C65.7989 51.9574 55.2159 50.105 46.3428 57.061C42.6899 59.9237 42.392 61.8667 38.3764 63.9392C33.3116 66.5429 28.3374 66.2191 24.3477 65.9212C17.3399 65.3771 10.371 64.8461 6.18699 59.3408C1.43306 53.0973 3.58336 44.7552 4.02378 43.149" stroke="#2BB2A3" stroke-width="1.29535" stroke-miterlimit="10"/>
<path d="M36.0761 186C25.5178 168.296 11.6677 139.391 7.61302 101.654C1.27003 42.4797 43.0212 29.4324 51.8934 -51.9024C53.2182 -64.0665 54.3825 -81.9712 66.9882 -98.9126C83.6486 -121.314 113.517 -133.759 119.659 -127.295C125.56 -121.153 112.834 -94.256 93.0426 -78.0774C76.4625 -64.5885 68.5136 -69.6466 52.3751 -56.3585C29.8134 -37.7711 24.8354 -10.8335 20.6201 -12.1984C17.5289 -13.202 23.1093 -26.5706 17.2079 -43.9135C12.4707 -57.7235 2.75549 -67.2779 2.6752 -67.1976C2.59491 -67.1574 6.04744 -63.9058 7.45253 -58.8073C9.9817 -49.5738 3.47801 -43.1505 1.06928 -34.1981C-2.54381 -20.5887 3.43794 -1.31871 12.4305 1.61191C26.2807 6.10821 52.6965 -26.2492 70.6415 -33.6762C74.0941 -35.1214 77.7471 -36.4465 77.7471 -36.4465C86.1375 -39.4975 92.5208 -41.103 94.2069 -41.5847C104.926 -44.435 114.962 -50.778 124.998 -56.1174C154.184 -71.5734 171.567 -72.1756 171.126 -75.7084C170.523 -80.5259 137.163 -88.1534 107.134 -75.1061C100.229 -72.0952 93.0828 -67.8401 50.6891 -20.2677C23.1493 10.6845 18.8136 17.1079 20.6201 19.4363C24.5142 24.5749 55.3461 7.27206 58.8789 5.26479C81.9225 -7.74236 83.2874 -14.3661 99.0245 -22.5558C128.01 -37.6103 160.889 -34.7201 162.294 -29.3004C163.337 -25.2859 146.276 -22.8772 131.984 -4.28986C123.152 7.19176 124.597 12.8525 116.769 17.9911C106.451 24.7757 97.0572 19.3961 80.3165 19.4363C52.3351 19.5166 24.1932 34.6516 24.7552 43.7245C25.1968 50.5493 42.0578 57.4542 57.7547 57.2134C85.8968 56.7718 93.5646 33.5678 124.557 21.2029C163.297 5.78706 203.924 21.1226 203.924 25.1773C203.924 28.8305 171.126 23.0896 143.626 44.6478C132.305 53.5199 131.382 59.5415 118.936 65.9648C103.24 74.034 87.8236 73.0305 75.4588 72.1072C53.7401 70.4211 32.142 68.7753 19.175 51.7134C4.44155 32.3633 11.1058 6.50957 12.4707 1.53152" stroke="#2BB2A3" stroke-opacity="0.2" stroke-width="4.01455" stroke-miterlimit="10"/>
</g>
</g>
<defs>
<clipPath id="clip0_343_74">
<rect width="250" height="56" fill="white"/>
</clipPath>
</defs>
</svg>
