<svg width="16" height="16" viewBox="0 0 16 16" fill="none" xmlns="http://www.w3.org/2000/svg">
<path d="M12.8462 14.846C13.1692 14.846 13.4423 14.7344 13.6654 14.5114C13.8885 14.2883 14 14.0152 14 13.6921V5.61522H11.6923V13.6921C11.6923 14.0152 11.8038 14.2883 12.0269 14.5114C12.25 14.7344 12.5231 14.846 12.8462 14.846ZM3.15385 14.846C3.47692 14.846 3.75 14.7344 3.97308 14.5114C4.19615 14.2883 4.30769 14.0152 4.30769 13.6921V11.1537H2V13.6921C2 14.0152 2.11154 14.2883 2.33461 14.5114C2.55769 14.7344 2.83077 14.846 3.15385 14.846ZM9.15385 7.46137V5.84598C9.15385 5.52291 9.04231 5.24983 8.81923 5.02675C8.59615 4.80368 8.32308 4.69214 8 4.69214C7.67692 4.69214 7.40385 4.80368 7.18077 5.02675C6.95769 5.24983 6.84615 5.52291 6.84615 5.84598V7.46137H9.15385Z" fill="#E8EEF2" fill-opacity="0.9"/>
<path d="M8.81923 14.5114C8.59615 14.7344 8.32308 14.846 8 14.846C7.67692 14.846 7.40385 14.7344 7.18077 14.5114C6.95769 14.2883 6.84615 14.0152 6.84615 13.6921V11.0383V8.38445H9.15385V13.6921C9.15385 14.0152 9.04231 14.2883 8.81923 14.5114Z" fill="#E8EEF2" fill-opacity="0.9"/>
<path d="M4.30769 9.53829V10.2306H2V9.53829C2 9.21522 2.11154 8.94214 2.33461 8.71906C2.55769 8.49599 2.83077 8.38445 3.15385 8.38445C3.47692 8.38445 3.75 8.49599 3.97308 8.71906C4.19615 8.94214 4.30769 9.21522 4.30769 9.53829Z" fill="#E8EEF2" fill-opacity="0.9"/>
<path d="M14 2.15385V4.69231H11.6923V2.15385C11.6923 1.83077 11.8038 1.55769 12.0269 1.33462C12.25 1.11154 12.5231 1 12.8462 1C13.1692 1 13.4423 1.11154 13.6654 1.33462C13.8885 1.55769 14 1.83077 14 2.15385Z" fill="#E8EEF2" fill-opacity="0.9"/>
</svg>
