<svg width="24" height="24" viewBox="0 0 24 24" fill="none" xmlns="http://www.w3.org/2000/svg">
<path d="M11.9048 3C6.94595 3 2.88867 7.04826 2.88867 12.0342C2.88867 16.5423 6.18859 20.284 10.4983 20.9602V14.6489H8.20821V12.0342H10.4983V10.0416C10.4983 7.77857 11.8417 6.53434 13.9064 6.53434C14.8892 6.53434 15.917 6.70565 15.917 6.70565V8.93264H14.781C13.663 8.93264 13.3114 9.62688 13.3114 10.3392V12.0342H15.8179L15.4121 14.6489H13.3114V20.9602C15.436 20.6247 17.3706 19.5406 18.7661 17.9038C20.1615 16.2669 20.9258 14.1851 20.921 12.0342C20.921 7.04826 16.8637 3 11.9048 3Z" fill="#E0E0E0"/>
</svg>
