<svg width="225" height="216" viewBox="0 0 225 216" fill="none" xmlns="http://www.w3.org/2000/svg">
<path d="M280.784 290.411C280.856 289.614 280.937 288.437 280.973 286.922C280.973 286.922 281.061 284.748 281.055 282.561C281.263 245.275 261.553 195.591 261.553 195.591C254.551 177.999 249.56 165.366 240.036 150.058C210.113 101.743 184.644 105.865 137.077 51.1981C117.846 29.1106 113.947 19.0184 96.2718 10.332C66.9722 -4.04224 29.277 -0.944712 26.3647 9.02955C23.5613 18.5923 51.1304 39.79 80.3253 45.9721C104.783 51.159 110.333 41.6275 134.181 46.7705C167.575 54.0572 187.176 79.3854 190.809 75.6991C193.441 73.0036 180.518 62.0344 177.421 40.8439C174.966 23.9329 179.93 8.79949 180.069 8.82035C180.162 8.83425 178.335 14.075 179.609 20.1605C181.904 31.1529 192.099 34.3445 199.39 42.3776C210.42 54.5842 214.538 77.8293 206.724 85.6903C194.762 97.826 149.966 78.2774 127.391 80.1707C123.024 80.5144 118.529 81.0765 118.529 81.0765C108.185 82.3784 100.663 84.1508 98.7035 84.5702C86.0541 87.333 72.2435 86.1184 58.9366 85.978C20.3498 85.5189 1.97554 94.2217 0.515327 90.3424C-1.43944 85.0104 29.1691 59.1741 67.305 56.6183C76.0724 56.0308 85.8005 56.6331 155.266 83.4449C200.427 100.862 208.359 105.236 207.752 108.663C206.455 116.074 165.169 114.64 160.453 114.456C129.567 113.25 124.598 107.133 103.881 107.071C65.7164 106.96 33.1394 127.558 34.5099 133.943C35.5599 138.664 54.5703 132.053 79.3901 143.712C94.6801 150.9 96.2409 157.599 107.12 158.754C121.452 160.284 128.349 149.671 145.763 140.73C174.886 125.794 212.204 126.491 216.492 136.213C219.667 143.535 205.813 159.761 189.42 167.904C159.96 182.552 139.575 162.478 100.741 166.212C52.2288 170.921 18.2771 208.664 20.4379 212.933C22.3828 216.743 53.361 193.196 93.5252 200.879C110.029 204.066 114.243 209.831 130.563 209.805C151.202 209.761 166.674 200.481 179.004 192.869C200.687 179.481 222.263 166.171 226.567 141.479C231.593 112.901 209.511 84.4918 206.684 85.6368C202.034 87.5545 233.516 175.939 252.023 227.962C260.379 251.414 267.759 270.918 273.158 284.943" fill="#FDD09E"/>
</svg>
