<svg width="257" height="246" viewBox="0 0 257 246" fill="none" xmlns="http://www.w3.org/2000/svg">
<path d="M-63.6136 -84.6982C-63.6953 -83.7905 -63.7874 -82.4516 -63.8291 -80.7264C-63.8291 -80.7264 -63.9288 -78.2526 -63.9227 -75.7627C-64.16 -33.3221 -41.6829 23.2306 -41.6829 23.2306C-33.699 43.2551 -28.0074 57.6342 -17.1465 75.059C16.9762 130.053 46.0196 125.361 100.263 187.586C122.193 212.727 126.64 224.214 146.795 234.101C180.207 250.463 223.193 246.937 226.514 235.584C229.711 224.699 198.272 200.571 164.98 193.534C137.089 187.63 130.76 198.479 103.565 192.625C65.485 184.331 43.133 155.501 38.9896 159.697C35.9886 162.765 50.7256 175.251 54.2566 199.371C57.0561 218.62 51.3959 235.846 51.2372 235.822C51.1314 235.806 53.214 229.841 51.7622 222.914C49.1449 210.402 37.5185 206.769 29.2049 197.626C16.626 183.731 11.9305 157.273 20.8412 148.325C34.4823 134.511 85.5649 156.763 111.308 154.608C116.288 154.216 121.414 153.577 121.414 153.577C133.21 152.095 141.787 150.077 144.022 149.6C158.447 146.455 174.196 147.838 189.371 147.997C233.373 148.52 254.326 138.614 255.991 143.03C258.22 149.099 223.316 178.507 179.828 181.416C169.83 182.085 158.736 181.399 79.5215 150.881C28.022 131.056 18.9772 126.077 19.6689 122.177C21.1473 113.74 68.2288 115.373 73.6062 115.582C108.828 116.955 114.493 123.917 138.118 123.989C181.639 124.115 218.788 100.669 217.226 93.4009C216.028 88.0273 194.35 95.5525 166.046 82.282C148.611 74.1003 146.831 66.4749 134.425 65.1601C118.081 63.4185 110.216 75.4988 90.3579 85.6766C57.1475 102.677 14.5916 101.883 9.70269 90.817C6.08159 82.4835 21.8796 64.0146 40.5741 54.7448C74.1682 38.0726 97.4146 60.9219 141.699 56.6707C197.02 51.3112 235.737 8.3506 233.273 3.49086C231.055 -0.845068 195.729 25.957 149.927 17.2112C131.107 13.584 126.302 7.02152 107.691 7.0511C84.1562 7.10144 66.5119 17.6644 52.4513 26.3287C27.7254 41.5681 3.12135 56.7178 -1.7865 84.824C-7.51814 117.352 17.6624 149.689 20.8863 148.386C26.1888 146.203 -9.71071 45.5994 -30.8161 -13.6156C-40.3443 -40.3102 -48.76 -62.5101 -54.9175 -78.4737" fill="#2BB2A3"/>
</svg>
