<svg width="649" height="621" viewBox="0 0 649 621" fill="none" xmlns="http://www.w3.org/2000/svg">
<path d="M809.966 -214.317C810.172 -212.021 810.405 -208.633 810.511 -204.267C810.511 -204.267 810.763 -198.008 810.748 -191.707C811.348 -84.3173 754.473 58.7817 754.473 58.7817C734.271 109.451 719.869 145.835 692.387 189.926C606.044 329.081 532.554 317.209 395.299 474.66C339.808 538.276 328.555 567.344 277.554 592.362C193.01 633.762 84.2406 624.841 75.8371 596.113C67.7478 568.571 147.299 507.517 231.54 489.712C302.115 474.772 318.128 502.225 386.942 487.412C483.299 466.425 539.858 393.475 550.342 404.092C557.936 411.856 520.646 443.449 511.711 504.482C504.627 553.189 518.95 596.776 519.351 596.716C519.619 596.676 514.349 581.581 518.023 564.054C524.646 532.394 554.065 523.202 575.101 500.065C606.93 464.907 618.812 397.957 596.264 375.316C561.747 340.363 432.49 396.667 367.35 391.214C354.748 390.224 341.778 388.605 341.778 388.605C311.929 384.855 290.226 379.75 284.571 378.542C248.071 370.585 208.221 374.083 169.824 374.487C58.4812 375.81 5.46212 350.744 1.24865 361.917C-4.39175 377.274 83.9294 451.688 193.971 459.049C219.269 460.741 247.339 459.006 447.782 381.783C578.094 331.619 600.981 319.021 599.231 309.151C595.49 287.804 476.356 291.935 462.75 292.465C373.627 295.94 359.291 313.556 299.511 313.737C189.387 314.055 95.3855 254.729 99.3402 236.338C102.37 222.741 157.224 241.783 228.842 208.203C272.961 187.501 277.465 168.206 308.856 164.879C350.212 160.472 370.114 191.039 420.362 216.793C504.396 259.81 612.078 257.802 624.449 229.8C633.612 208.713 593.637 161.98 546.333 138.524C461.328 96.3373 402.506 154.154 290.451 143.397C150.468 129.836 52.5003 21.1299 58.7354 8.83297C64.3475 -2.13851 153.735 65.6804 269.629 43.5505C317.251 34.3724 329.411 17.7668 376.501 17.8417C436.054 17.9691 480.701 44.6972 516.279 66.6211C578.845 105.182 641.102 143.517 653.521 214.636C668.024 296.944 604.308 378.768 596.15 375.47C582.733 369.947 673.572 115.383 726.976 -34.4527C751.086 -102 772.381 -158.173 787.961 -198.567" fill="#2BB2A3"/>
</svg>
