<svg width="132" height="134" viewBox="0 0 132 134" fill="none" xmlns="http://www.w3.org/2000/svg">
<path d="M12.4302 149.877C10.2556 146.231 7.40307 140.277 6.56797 132.505C5.26157 120.318 13.8606 117.631 15.6879 100.879C15.9607 98.3736 16.2005 94.686 18.7968 91.1968C22.2281 86.583 28.3798 84.0199 29.6448 85.3511C30.8603 86.6161 28.2392 92.1558 24.1629 95.488C20.7481 98.2661 19.111 97.2243 15.7871 99.9611C11.1403 103.789 10.1151 109.337 9.24689 109.056C8.61023 108.85 9.75955 106.096 8.54411 102.524C7.56845 99.68 5.56752 97.7122 5.55098 97.7287C5.53444 97.737 6.24552 98.4067 6.53491 99.4568C7.05582 101.359 5.71633 102.681 5.22023 104.525C4.47608 107.328 5.70807 111.297 7.56018 111.901C10.4127 112.827 15.8533 106.162 19.5492 104.633C20.2603 104.335 21.0127 104.062 21.0127 104.062C22.7408 103.434 24.0555 103.103 24.4027 103.004C26.6104 102.417 28.6774 101.11 30.7445 100.011C36.7556 96.8275 40.3358 96.7035 40.2448 95.9759C40.1208 94.9837 33.2498 93.4127 27.0651 96.0999C25.643 96.72 24.1712 97.5964 15.4399 107.394C9.76779 113.769 8.87482 115.092 9.24689 115.572C10.0489 116.63 16.399 113.066 17.1266 112.653C21.8726 109.974 22.1538 108.61 25.3949 106.923C31.3647 103.822 38.1364 104.418 38.4258 105.534C38.6407 106.361 35.1267 106.857 32.1832 110.685C30.3642 113.05 30.6618 114.216 29.0495 115.274C26.9246 116.671 24.9898 115.563 21.5419 115.572C15.7789 115.588 9.9828 118.705 10.0986 120.574C10.1895 121.98 13.6622 123.402 16.8951 123.352C22.6912 123.261 24.2704 118.482 30.6536 115.936C38.6325 112.761 47 115.919 47 116.754C47 117.507 40.2448 116.324 34.581 120.764C32.2494 122.592 32.0592 123.832 29.496 125.155C26.2631 126.817 23.088 126.61 20.5414 126.42C16.0682 126.072 11.6199 125.734 8.94925 122.219C5.91477 118.234 7.28733 112.909 7.56845 111.884" stroke="#2BB2A3" stroke-width="0.826831" stroke-miterlimit="10"/>
<path d="M23.0276 203.067C16.2882 191.766 7.4476 173.316 4.85945 149.228C0.81067 111.457 27.4608 103.129 33.124 51.212C33.9696 43.4476 34.7128 32.0188 42.7591 21.205C53.3936 6.90614 72.4587 -1.03754 76.3794 3.08812C80.1463 7.00878 72.0231 24.1774 59.3898 34.5043C48.8066 43.1144 43.7328 39.8857 33.4315 48.3677C19.0301 60.2322 15.8526 77.4267 13.162 76.5554C11.1889 75.9148 14.7508 67.3815 10.9839 56.3114C7.96014 47.4964 1.75885 41.3977 1.7076 41.449C1.65635 41.4746 3.86013 43.5502 4.75701 46.8046C6.3714 52.6984 2.22005 56.7984 0.682532 62.5128C-1.62374 71.1998 2.19446 83.5 7.93451 85.3707C16.7752 88.2407 33.6366 67.5867 45.0911 62.846C47.2948 61.9235 49.6266 61.0777 49.6266 61.0777C54.9823 59.1302 59.0568 58.1054 60.1331 57.7979C66.975 55.9785 73.3813 51.9297 79.7876 48.5216C98.4171 38.6559 109.513 38.2715 109.231 36.0165C108.847 32.9414 87.552 28.0727 68.3843 36.4009C63.9768 38.3228 59.4155 41.0388 32.3553 71.4047C14.7764 91.1618 12.0089 95.2618 13.162 96.7481C15.6476 100.028 35.3279 88.9836 37.5829 87.7023C52.2918 79.3997 53.163 75.1718 63.2081 69.9442C81.7095 60.3348 102.696 62.1796 103.593 65.639C104.26 68.2016 93.3689 69.739 84.2463 81.6035C78.6088 88.9323 79.5313 92.5456 74.5344 95.8256C67.9487 100.156 61.9524 96.7225 51.2667 96.7481C33.4059 96.7994 15.4427 106.46 15.8015 112.251C16.0833 116.608 26.8459 121.015 36.8653 120.862C54.8286 120.58 59.7231 105.768 79.5057 97.8758C104.234 88.0357 130.167 97.8245 130.167 100.413C130.167 102.745 109.231 99.0801 91.6777 112.841C84.4514 118.504 83.8619 122.348 75.9181 126.448C65.8987 131.598 56.0585 130.958 48.166 130.368C34.3027 129.292 20.5165 128.242 12.2395 117.351C2.83507 105 7.0889 88.4969 7.96016 85.3193" stroke="#2BB2A3" stroke-opacity="0.2" stroke-width="2.56252" stroke-miterlimit="10"/>
</svg>
