<svg width="649" height="621" viewBox="0 0 649 621" fill="none" xmlns="http://www.w3.org/2000/svg">
<path d="M-160.966 835.317C-161.172 833.021 -161.405 829.633 -161.511 825.267C-161.511 825.267 -161.763 819.008 -161.748 812.707C-162.348 705.317 -105.473 562.218 -105.473 562.218C-85.2709 511.549 -70.869 475.165 -43.3871 431.074C42.9559 291.919 116.446 303.791 253.701 146.34C309.192 82.7241 320.445 53.6564 371.446 28.6382C455.99 -12.7623 564.759 -3.84087 573.163 24.8868C581.252 52.4293 501.701 113.483 417.46 131.288C346.885 146.228 330.872 118.775 262.058 133.588C165.701 154.575 109.142 227.525 98.6579 216.908C91.0641 209.144 128.354 177.551 137.289 116.518C144.373 67.8112 130.05 24.2242 129.649 24.2843C129.381 24.3243 134.651 39.4187 130.977 56.946C124.354 88.6062 94.9354 97.7984 73.8989 120.935C42.0697 156.093 30.1884 223.043 52.7358 245.684C87.2527 280.637 216.51 224.333 281.65 229.786C294.252 230.776 307.222 232.395 307.222 232.395C337.071 236.145 358.774 241.25 364.429 242.458C400.929 250.415 440.779 246.917 479.176 246.513C590.519 245.19 643.538 270.256 647.751 259.083C653.392 243.726 565.071 169.312 455.029 161.951C429.731 160.259 401.661 161.994 201.218 239.217C70.9057 289.381 48.019 301.979 49.7693 311.849C53.5103 333.196 172.644 329.065 186.25 328.535C275.373 325.06 289.709 307.444 349.489 307.263C459.613 306.945 553.615 366.271 549.66 384.662C546.63 398.259 491.776 379.217 420.158 412.797C376.039 433.499 371.535 452.794 340.144 456.121C298.788 460.528 278.886 429.961 228.638 404.207C144.604 361.19 36.922 363.198 24.5512 391.2C15.3885 412.287 55.3632 459.02 102.667 482.476C187.672 524.663 246.494 466.846 358.549 477.603C498.532 491.164 596.5 599.87 590.265 612.167C584.652 623.139 495.265 555.32 379.371 577.449C331.749 586.628 319.589 603.233 272.499 603.158C212.946 603.031 168.299 576.303 132.721 554.379C70.1553 515.818 7.898 477.483 -4.52064 406.364C-19.0238 324.056 44.6923 242.232 52.8497 245.53C66.2671 251.053 -24.5718 505.617 -77.9762 655.453C-102.086 723 -123.381 779.173 -138.961 819.567" fill="#FDD09E"/>
</svg>
