<svg width="132" height="134" viewBox="0 0 132 134" fill="none" xmlns="http://www.w3.org/2000/svg">
<path d="M23.0276 203.067C16.2882 191.766 7.4476 173.316 4.85945 149.228C0.81067 111.457 27.4608 103.129 33.124 51.212C33.9696 43.4476 34.7128 32.0188 42.7591 21.205C53.3936 6.90614 72.4587 -1.03754 76.3794 3.08812C80.1463 7.00878 72.0231 24.1774 59.3898 34.5043C48.8066 43.1144 43.7328 39.8857 33.4315 48.3677C19.0301 60.2322 15.8526 77.4267 13.162 76.5554C11.1889 75.9148 14.7508 67.3815 10.9839 56.3114C7.96014 47.4964 1.75885 41.3977 1.7076 41.449C1.65635 41.4746 3.86013 43.5502 4.75701 46.8046C6.3714 52.6984 2.22005 56.7984 0.682532 62.5128C-1.62374 71.1998 2.19446 83.5 7.93451 85.3707C16.7752 88.2407 33.6366 67.5867 45.0911 62.846C47.2948 61.9235 49.6266 61.0777 49.6266 61.0777C54.9823 59.1302 59.0568 58.1054 60.1331 57.7979C66.975 55.9785 73.3813 51.9297 79.7876 48.5216C98.4171 38.6559 109.513 38.2715 109.231 36.0165C108.847 32.9414 87.552 28.0727 68.3843 36.4009C63.9768 38.3228 59.4155 41.0388 32.3553 71.4047C14.7764 91.1618 12.0089 95.2618 13.162 96.7481C15.6476 100.028 35.3279 88.9836 37.5829 87.7023C52.2918 79.3997 53.163 75.1718 63.2081 69.9442C81.7095 60.3348 102.696 62.1796 103.593 65.639C104.26 68.2016 93.3689 69.739 84.2463 81.6035C78.6088 88.9323 79.5313 92.5456 74.5344 95.8256C67.9487 100.156 61.9524 96.7225 51.2667 96.7481C33.4059 96.7994 15.4427 106.46 15.8015 112.251C16.0833 116.608 26.8459 121.015 36.8653 120.862C54.8286 120.58 59.7231 105.768 79.5057 97.8758C104.234 88.0357 130.167 97.8245 130.167 100.413C130.167 102.745 109.231 99.0801 91.6777 112.841C84.4514 118.504 83.8619 122.348 75.9181 126.448C65.8987 131.598 56.0585 130.958 48.166 130.368C34.3027 129.292 20.5165 128.242 12.2395 117.351C2.83507 105 7.0889 88.4969 7.96016 85.3193" stroke="#2BB2A3" stroke-opacity="0.2" stroke-width="2.56252" stroke-miterlimit="10"/>
</svg>
