<svg width="195" height="300" viewBox="0 0 195 300" fill="none" xmlns="http://www.w3.org/2000/svg">
<g clip-path="url(#clip0_343_64)">
<rect y="141" width="195" height="159" fill="url(#paint0_linear_343_64)"/>
<path d="M12.4302 315.877C10.2556 312.231 7.40307 306.277 6.56797 298.505C5.26157 286.318 13.8606 283.631 15.6879 266.879C15.9607 264.374 16.2005 260.686 18.7968 257.197C22.2281 252.583 28.3798 250.02 29.6448 251.351C30.8603 252.616 28.2392 258.156 24.1629 261.488C20.7481 264.266 19.111 263.224 15.7871 265.961C11.1403 269.789 10.1151 275.337 9.24689 275.056C8.61023 274.85 9.75955 272.096 8.54411 268.524C7.56845 265.68 5.56752 263.712 5.55098 263.729C5.53444 263.737 6.24552 264.407 6.53491 265.457C7.05582 267.359 5.71633 268.681 5.22023 270.525C4.47608 273.328 5.70807 277.297 7.56018 277.901C10.4127 278.827 15.8533 272.162 19.5492 270.633C20.2603 270.335 21.0127 270.062 21.0127 270.062C22.7408 269.434 24.0555 269.103 24.4027 269.004C26.6104 268.417 28.6774 267.11 30.7445 266.011C36.7556 262.828 40.3358 262.703 40.2448 261.976C40.1208 260.984 33.2498 259.413 27.0651 262.1C25.643 262.72 24.1712 263.596 15.4399 273.394C9.76779 279.769 8.87482 281.092 9.24689 281.572C10.0489 282.63 16.399 279.066 17.1266 278.653C21.8726 275.974 22.1538 274.61 25.3949 272.923C31.3647 269.822 38.1364 270.418 38.4258 271.534C38.6407 272.361 35.1267 272.857 32.1832 276.685C30.3642 279.05 30.6618 280.216 29.0495 281.274C26.9246 282.671 24.9898 281.563 21.5419 281.572C15.7789 281.588 9.9828 284.705 10.0986 286.574C10.1895 287.98 13.6622 289.402 16.8951 289.352C22.6912 289.261 24.2704 284.482 30.6536 281.936C38.6325 278.761 47 281.919 47 282.754C47 283.507 40.2448 282.324 34.581 286.764C32.2494 288.592 32.0592 289.832 29.496 291.155C26.2631 292.817 23.088 292.61 20.5414 292.42C16.0682 292.072 11.6199 291.734 8.94925 288.219C5.91477 284.234 7.28733 278.909 7.56845 277.884" stroke="#ED7642" stroke-width="0.826831" stroke-miterlimit="10"/>
<path d="M23.0276 369.067C16.2882 357.766 7.4476 339.316 4.85945 315.228C0.81067 277.457 27.4608 269.129 33.124 217.212C33.9696 209.448 34.7128 198.019 42.7591 187.205C53.3936 172.906 72.4587 164.962 76.3794 169.088C80.1463 173.009 72.0231 190.177 59.3898 200.504C48.8066 209.114 43.7328 205.886 33.4315 214.368C19.0301 226.232 15.8526 243.427 13.162 242.555C11.1889 241.915 14.7508 233.382 10.9839 222.311C7.96014 213.496 1.75885 207.398 1.7076 207.449C1.65635 207.475 3.86013 209.55 4.75701 212.805C6.3714 218.698 2.22005 222.798 0.682532 228.513C-1.62374 237.2 2.19446 249.5 7.93451 251.371C16.7752 254.241 33.6366 233.587 45.0911 228.846C47.2948 227.923 49.6266 227.078 49.6266 227.078C54.9823 225.13 59.0568 224.105 60.1331 223.798C66.975 221.979 73.3813 217.93 79.7876 214.522C98.4171 204.656 109.513 204.271 109.231 202.016C108.847 198.941 87.552 194.073 68.3843 202.401C63.9768 204.323 59.4155 207.039 32.3553 237.405C14.7764 257.162 12.0089 261.262 13.162 262.748C15.6476 266.028 35.3279 254.984 37.5829 253.702C52.2918 245.4 53.163 241.172 63.2081 235.944C81.7095 226.335 102.696 228.18 103.593 231.639C104.26 234.202 93.3689 235.739 84.2463 247.604C78.6088 254.932 79.5313 258.546 74.5344 261.826C67.9487 266.156 61.9524 262.722 51.2667 262.748C33.4059 262.799 15.4427 272.46 15.8015 278.251C16.0833 282.608 26.8459 287.015 36.8653 286.862C54.8286 286.58 59.7231 271.768 79.5057 263.876C104.234 254.036 130.167 263.824 130.167 266.413C130.167 268.745 109.231 265.08 91.6777 278.841C84.4514 284.504 83.8619 288.348 75.9181 292.448C65.8987 297.598 56.0585 296.958 48.166 296.368C34.3027 295.292 20.5165 294.242 12.2395 283.351C2.83507 271 7.0889 254.497 7.96016 251.319" stroke="#ED7642" stroke-opacity="0.2" stroke-width="2.56252" stroke-miterlimit="10"/>
</g>
<defs>
<linearGradient id="paint0_linear_343_64" x1="97.5" y1="141" x2="97.5" y2="300" gradientUnits="userSpaceOnUse">
<stop stop-color="#1A1D25" stop-opacity="0"/>
<stop offset="0.42134" stop-color="#1A1D25" stop-opacity="0.86"/>
</linearGradient>
<clipPath id="clip0_343_64">
<rect width="195" height="300" rx="6" fill="white"/>
</clipPath>
</defs>
</svg>
