<svg width="32" height="32" viewBox="0 0 32 32" fill="none" xmlns="http://www.w3.org/2000/svg">
<rect width="32" height="32" rx="4" fill="#00B451"/>
<path d="M7.59091 22.6136C7.15152 22.6136 6.77652 22.4583 6.46591 22.1477C6.1553 21.8371 6 21.4621 6 21.0227C6 20.5833 6.1553 20.2083 6.46591 19.8977C6.77652 19.5871 7.15152 19.4318 7.59091 19.4318C7.66667 19.4318 7.74242 19.4356 7.81818 19.4432C7.89394 19.4508 7.99242 19.4697 8.11364 19.5L12.6591 14.9545C12.6288 14.8333 12.6098 14.7348 12.6023 14.6591C12.5947 14.5833 12.5909 14.5076 12.5909 14.4318C12.5909 13.9924 12.7462 13.6174 13.0568 13.3068C13.3674 12.9962 13.7424 12.8409 14.1818 12.8409C14.6212 12.8409 14.9962 12.9962 15.3068 13.3068C15.6174 13.6174 15.7727 13.9924 15.7727 14.4318C15.7727 14.4621 15.75 14.6364 15.7045 14.9545L18.2045 17.4545C18.3258 17.4242 18.4242 17.4053 18.5 17.3977C18.5758 17.3902 18.6515 17.3864 18.7273 17.3864C18.803 17.3864 18.8788 17.3902 18.9545 17.3977C19.0303 17.4053 19.1288 17.4242 19.25 17.4545L22.8864 13.8182C22.8561 13.697 22.8371 13.5985 22.8295 13.5227C22.822 13.447 22.8182 13.3712 22.8182 13.2955C22.8182 12.8561 22.9735 12.4811 23.2841 12.1705C23.5947 11.8598 23.9697 11.7045 24.4091 11.7045C24.8485 11.7045 25.2235 11.8598 25.5341 12.1705C25.8447 12.4811 26 12.8561 26 13.2955C26 13.7348 25.8447 14.1098 25.5341 14.4205C25.2235 14.7311 24.8485 14.8864 24.4091 14.8864C24.3333 14.8864 24.2576 14.8826 24.1818 14.875C24.1061 14.8674 24.0076 14.8485 23.8864 14.8182L20.25 18.4545C20.2803 18.5758 20.2992 18.6742 20.3068 18.75C20.3144 18.8258 20.3182 18.9015 20.3182 18.9773C20.3182 19.4167 20.1629 19.7917 19.8523 20.1023C19.5417 20.4129 19.1667 20.5682 18.7273 20.5682C18.2879 20.5682 17.9129 20.4129 17.6023 20.1023C17.2917 19.7917 17.1364 19.4167 17.1364 18.9773C17.1364 18.9015 17.1402 18.8258 17.1477 18.75C17.1553 18.6742 17.1742 18.5758 17.2045 18.4545L14.7045 15.9545C14.5833 15.9848 14.4848 16.0038 14.4091 16.0114C14.3333 16.0189 14.2576 16.0227 14.1818 16.0227C14.1515 16.0227 13.9773 16 13.6591 15.9545L9.11364 20.5C9.14394 20.6212 9.16288 20.7197 9.17045 20.7955C9.17803 20.8712 9.18182 20.947 9.18182 21.0227C9.18182 21.4621 9.02652 21.8371 8.71591 22.1477C8.4053 22.4583 8.0303 22.6136 7.59091 22.6136ZM18.7273 11.4091L18.0227 9.90909L16.5227 9.20455L18.0227 8.5L18.7273 7L19.4318 8.5L20.9318 9.20455L19.4318 9.90909L18.7273 11.4091ZM8.72727 12.5682L8.27273 11.5682L7.27273 11.1136L8.27273 10.6591L8.72727 9.65909L9.18182 10.6591L10.1818 11.1136L9.18182 11.5682L8.72727 12.5682Z" fill="white"/>
</svg>
