<svg width="116" height="116" viewBox="0 0 116 116" fill="none" xmlns="http://www.w3.org/2000/svg">
<path d="M54.7668 61.1234C54.7599 61.1442 54.7529 61.1663 54.746 61.187C54.7543 61.1663 54.7627 61.1442 54.7696 61.1234H54.7668ZM60.7599 61.2022H60.7585C60.764 61.2188 60.7695 61.2367 60.7765 61.2533C60.7695 61.2367 60.764 61.2201 60.7599 61.2022ZM54.2721 56.0078C54.279 56.0189 54.2859 56.0327 54.29 56.0451H54.2915C54.2859 56.0327 54.279 56.0202 54.2721 56.0078Z" fill="#00B451"/>
<path d="M94.7438 51.116C94.0833 49.3196 93.0248 47.7318 92.1031 46.0736C90.2183 42.6812 88.2934 39.3108 86.385 35.9322C84.8042 33.1326 83.2261 30.3288 81.6452 27.5292C79.531 23.7843 77.4153 20.0395 75.2983 16.2974C74.6212 15.1008 74.0423 13.8336 73.2436 12.724C73.0626 12.4711 72.8774 12.2251 72.6922 11.9861C72.5678 11.8258 72.4407 11.6682 72.3149 11.5135C72.2514 11.4347 72.1892 11.3573 72.1243 11.2827C71.9322 11.0547 71.7373 10.8322 71.5397 10.6153C67.9221 6.64106 63.3978 4.64014 57.9962 4.64014C57.1892 4.64014 56.3629 4.68437 55.5158 4.77419C52.4729 5.09616 49.7175 6.24586 47.2191 8.00358C45.3329 9.33154 43.6982 10.929 42.4973 12.8981C41.2896 14.8755 40.2228 16.9373 39.0924 18.963C37.3499 22.0874 35.6074 25.2118 33.8635 28.3348C31.7949 32.0368 29.7221 35.7387 27.6548 39.4407C25.9054 42.5748 24.1684 45.7157 22.4079 48.8442C20.3697 52.4702 19.7134 56.3339 20.6696 60.373C22.1026 66.4214 25.922 70.3846 31.752 72.4062C34.1399 73.2339 36.5802 73.5905 39.0524 73.5905C40.2808 73.5905 41.5162 73.502 42.7571 73.3417C46.2339 72.8885 49.3195 71.5619 51.9354 69.21C54.0082 67.3445 55.7327 65.2081 56.8258 62.6158C57.3205 61.4426 57.5913 60.2197 57.5471 58.9373C57.5346 58.4716 57.4877 58.0073 57.4006 57.5485C57.1035 55.9926 56.4001 54.6149 55.5171 53.3201C54.4407 51.742 53.1597 50.3284 51.9603 48.847C50.823 47.4444 49.7672 45.9949 49.0708 44.3131C47.7912 41.2247 47.6972 38.0464 48.4227 34.8267C49.495 30.0662 51.764 25.9124 54.9188 22.2187C55.7493 21.2473 56.6655 20.3656 57.5858 19.4812C57.4918 19.4094 57.3868 19.3942 57.2804 19.3942C57.2362 19.3942 57.1906 19.3969 57.1463 19.3997C55.9953 19.4508 54.8621 19.6014 53.7401 19.8474L53.7387 19.8488C53.3974 19.922 53.0602 20.0063 52.7216 20.1003C49.7216 20.9239 47.0657 22.3901 44.7636 24.4684C42.6079 26.4154 40.9483 28.7328 39.8124 31.4163C38.9418 33.4711 38.414 35.613 38.2855 37.8378C38.121 40.6734 38.4954 43.437 39.5083 46.1095C40.4729 48.6508 41.8962 50.8963 43.7673 52.8571C45.033 54.1837 46.4674 55.3072 48.0607 56.2234C49.7741 57.2114 51.5885 57.9465 53.519 58.3942C54.033 58.5145 54.5485 58.607 55.0694 58.6816C55.0777 58.788 55.0846 58.8986 55.0874 59.0092V59.0243C55.1109 59.7153 55.0059 60.4048 54.7613 61.1234H54.7626C54.7557 61.1441 54.7474 61.1662 54.7392 61.187C54.7323 61.2104 54.7239 61.2326 54.7143 61.2561C54.6991 61.3003 54.6825 61.3445 54.6645 61.3901C54.6314 61.4785 54.5955 61.5683 54.5568 61.6595C53.6959 63.7005 52.2988 65.5716 50.2868 67.3818C48.1007 69.3482 45.5319 70.4993 42.4365 70.9014C41.2689 71.0534 40.1289 71.1308 39.0482 71.1308C36.7115 71.1308 34.5876 70.7881 32.5535 70.0833C27.3785 68.2869 24.2721 64.9263 23.0602 59.8065C22.2628 56.4431 22.7506 53.251 24.5498 50.052C25.6677 48.0607 26.7967 46.0322 27.887 44.0713C28.5227 42.9285 29.1597 41.783 29.7981 40.6416C30.9271 38.6185 32.056 36.5996 33.1864 34.5794C34.126 32.8977 35.0657 31.2173 36.0054 29.5342C37.5254 26.8134 39.0441 24.0911 40.5627 21.3675L41.2357 20.1625C41.5894 19.5282 41.9404 18.8871 42.279 18.2652C43.0542 16.8419 43.788 15.4987 44.5936 14.1791C45.5416 12.6231 46.864 11.2606 48.6313 10.0142C50.8934 8.42089 53.2937 7.48123 55.77 7.21868C56.5259 7.13853 57.2721 7.09846 57.9906 7.09846C63.4904 7.09846 67.8239 9.40753 71.2385 14.1597C71.6931 14.7912 72.0897 15.5388 72.5098 16.3292C72.7129 16.7134 72.9243 17.11 73.1496 17.508C75.2666 21.2486 77.3822 24.9935 79.4965 28.7369C80.3656 30.2749 81.232 31.8143 82.0999 33.3509C82.8115 34.6153 83.5232 35.8783 84.2376 37.1413C84.8235 38.1777 85.4108 39.2127 85.9953 40.2491C87.297 42.5471 88.6443 44.9226 89.946 47.2662C90.1933 47.7125 90.4476 48.1492 90.6936 48.5706C91.3707 49.7314 92.0105 50.8286 92.4279 51.9645C94.9387 58.7825 91.8433 66.2887 85.2312 69.4214C83.4969 70.2436 81.6356 70.7729 79.5421 71.0423C78.5679 71.1667 77.5646 71.2289 76.5558 71.2289C75.6618 71.2289 74.7401 71.1791 73.8156 71.081C69.3771 70.6098 65.8106 68.5909 62.91 64.9097C62.5881 64.5006 62.3034 64.111 62.0491 63.7337C62.016 63.6867 61.9856 63.6384 61.9552 63.5928C61.9096 63.5237 61.8654 63.4546 61.8226 63.3855C61.7811 63.3233 61.7438 63.2611 61.7065 63.1989C61.618 63.0566 61.5337 62.9143 61.4577 62.7719C61.4384 62.7374 61.4204 62.7028 61.4025 62.6697C61.3666 62.6047 61.3306 62.5384 61.2974 62.4735C61.2712 62.4223 61.2449 62.3712 61.22 62.3215C61.1841 62.251 61.151 62.1819 61.1206 62.1128C61.0791 62.0257 61.0404 61.9387 61.0045 61.853C60.9602 61.7494 60.9188 61.6485 60.8801 61.5462C60.8525 61.4757 60.8262 61.4067 60.8027 61.3362C60.793 61.3072 60.782 61.2782 60.7737 61.2505C60.7668 61.2339 60.7613 61.216 60.7558 61.1994H60.7571C60.6852 60.9879 60.6245 60.7779 60.5734 60.5679C60.438 60.0069 60.3813 59.5066 60.4034 59.0326C60.4062 58.9414 60.4131 58.8502 60.4214 58.7604C60.6438 58.7342 60.8663 58.7024 61.0874 58.6665C63.8856 58.2118 66.4766 57.2252 68.8534 55.6678C70.882 54.3399 72.6065 52.6913 74.0243 50.7305C75.3398 48.9161 76.3209 46.9318 76.9552 44.7788C77.7277 42.1533 77.9819 39.4822 77.6378 36.7669C77.3117 34.1869 76.5435 31.7466 75.2583 29.4734C74.1363 27.4919 72.7309 25.7383 71.0132 24.2445C69.449 22.8847 67.7134 21.7903 65.8009 20.9778C64.5144 20.432 63.2016 20.0188 61.8557 19.7548C60.6742 19.5172 59.4693 19.3956 58.2394 19.3956H58.1607C58.0308 19.3956 57.9008 19.39 57.7889 19.4688C59.7636 21.0289 61.5448 22.7797 63.0289 24.8152C65.8382 28.6706 67.77 32.8783 68.074 37.7162C68.2053 39.8332 67.8778 41.8838 67.0984 43.8599C66.3149 45.8498 65.0271 47.5039 63.6425 49.1013C62.3629 50.5757 61.0114 51.9893 59.8962 53.6019C58.7852 55.209 58.0307 56.9447 57.9464 58.9262C57.9119 59.678 58.0072 60.4173 58.1827 61.1455C58.6664 63.1437 59.7276 64.8378 60.981 66.4269C64.2007 70.5158 68.3449 72.9714 73.5573 73.5255C74.5577 73.6319 75.5581 73.6858 76.5586 73.6858C77.6586 73.6858 78.7599 73.6181 79.8585 73.4771C82.0971 73.1897 84.2459 72.608 86.2883 71.6407C94.0971 67.9484 97.6706 59.063 94.7438 51.116ZM54.2915 56.0451C54.221 56.0299 54.1519 56.0133 54.0814 55.9981C52.4439 55.6195 50.8341 54.9769 49.2919 54.0911C47.9073 53.2952 46.6498 52.3085 45.5526 51.1602C43.9096 49.4384 42.6507 47.4458 41.8133 45.2362C40.9565 42.9811 40.5973 40.5407 40.7465 37.9815C40.8543 36.098 41.3048 34.2146 42.0814 32.3753C43.0666 30.0497 44.5259 28.0031 46.4163 26.2952C47.7843 25.0612 49.2974 24.0745 50.9418 23.3435C50.9073 23.3946 50.8714 23.443 50.8368 23.4941C50.7691 23.5909 50.7028 23.6876 50.6364 23.7857C50.5079 23.9736 50.3822 24.1643 50.2578 24.3564C50.1279 24.5582 49.998 24.7599 49.8737 24.963C49.8059 25.0708 49.7396 25.1814 49.6733 25.2906C49.6097 25.397 49.5448 25.502 49.4826 25.6084C48.8801 26.6337 48.3426 27.6784 47.87 28.741C47.8327 28.8253 47.7967 28.9069 47.7608 28.9898C47.6102 29.3339 47.4678 29.6807 47.3324 30.0276C47.291 30.1298 47.2522 30.2321 47.2122 30.3357C47.197 30.3772 47.1804 30.42 47.1666 30.4601C47.1335 30.5485 47.1003 30.6356 47.0699 30.724C46.9939 30.9285 46.9234 31.1344 46.8529 31.3389C46.8377 31.3832 46.8239 31.4274 46.8087 31.4716C46.7741 31.5752 46.741 31.6761 46.7092 31.7797C46.6719 31.8972 46.6332 32.016 46.5973 32.1335C46.5254 32.3698 46.4563 32.6075 46.3886 32.8451C46.3554 32.9654 46.3237 33.0828 46.2919 33.2031C46.2643 33.3053 46.238 33.4048 46.2131 33.5071C46.202 33.5499 46.1896 33.5941 46.18 33.6369C46.1565 33.7281 46.1344 33.8221 46.1109 33.9161C46.0819 34.0391 46.0528 34.1621 46.0252 34.2851C45.1422 38.1971 45.4033 41.8866 46.8004 45.2556C47.6433 47.291 48.9174 48.9962 50.0519 50.3961C50.4057 50.8327 50.765 51.2625 51.1146 51.6784C51.9741 52.7051 52.7866 53.6766 53.4886 54.7047C53.5397 54.7807 53.5908 54.8553 53.6378 54.9299C53.6875 55.0059 53.7346 55.0778 53.7802 55.151C53.8783 55.3086 53.9722 55.4619 54.0593 55.6139C54.0938 55.6761 54.127 55.7355 54.1588 55.7963C54.1974 55.8668 54.2348 55.9373 54.2707 56.0064C54.2776 56.0188 54.2845 56.0313 54.2901 56.0437H54.2915V56.0451ZM61.3154 55.9815C61.3444 55.9263 61.3776 55.8682 61.4107 55.8115C61.4273 55.7839 61.4453 55.7535 61.4619 55.7245C61.4992 55.6609 61.5393 55.596 61.5793 55.531C61.6318 55.444 61.6871 55.3569 61.7452 55.2699C61.8032 55.1814 61.8612 55.0944 61.922 55.0059C62.6876 53.8977 63.601 52.8668 64.5697 51.7779C64.8765 51.4338 65.1915 51.0759 65.5024 50.7167C66.97 49.0253 68.4568 47.1335 69.3896 44.7678C70.3016 42.4532 70.6857 40.0308 70.5309 37.5656C70.2242 32.6835 68.4223 28.0391 65.0188 23.3684C65.0022 23.3449 64.9842 23.3228 64.9676 23.2993C66.5678 23.9944 68.0589 24.9382 69.4006 26.1045C70.8695 27.3827 72.1201 28.9262 73.1178 30.6895C74.2067 32.613 74.9073 34.7618 75.1989 37.0792C75.4905 39.3813 75.2873 41.7401 74.5964 44.0879C74.0464 45.9534 73.1855 47.7042 72.0345 49.292C70.7936 51.0055 69.2694 52.4606 67.5061 53.6158C65.6019 54.8622 63.4932 55.7121 61.2256 56.1487C61.2546 56.0935 61.285 56.0368 61.3154 55.9815Z" fill="#00B451"/>
<path d="M16.6857 95.3453V96.7617C16.6857 96.9454 16.5779 97.0615 16.3914 97.0615H9.57466C9.38811 97.0615 9.28027 96.9454 9.28027 96.7617V85.6419C9.28027 85.4581 9.38811 85.342 9.57466 85.342H11.1389C11.3089 85.342 11.418 85.4595 11.418 85.6419V95.044H16.3914C16.5765 95.0454 16.6857 95.1449 16.6857 95.3453Z" fill="#00B451"/>
<path d="M28.9081 97.0613H27.2499C27.0951 97.0613 26.986 96.9784 26.9252 96.8112L26.1514 94.7937H21.4876L20.7138 96.8112C20.6516 96.9784 20.5438 97.0613 20.389 97.0613H18.7308C18.5138 97.0613 18.4213 96.9286 18.4987 96.7117L23.038 85.5753C23.0836 85.4261 23.2246 85.3418 23.3794 85.3418H24.3093C24.4641 85.3418 24.5885 85.4247 24.6507 85.5753L29.1431 96.7117C29.2177 96.9286 29.1251 97.0613 28.9081 97.0613ZM22.1688 92.8438H25.4687L23.827 88.6099L22.1688 92.8438Z" fill="#00B451"/>
<path d="M41.9681 85.6416V96.7613C41.9681 96.9617 41.8603 97.0612 41.6737 97.0612H40.8031C40.6484 97.0612 40.4798 96.8567 40.4798 96.8567L34.2698 89.3587V96.76C34.2698 96.9437 34.162 97.0598 33.9754 97.0598H32.4567C32.2868 97.0598 32.1776 96.9437 32.1776 96.76V85.6402C32.1776 85.4564 32.2854 85.3403 32.4567 85.3403H33.3481C33.5028 85.3403 33.6354 85.5227 33.6354 85.5227L39.8621 93.0428V85.6402C39.8621 85.4564 39.9699 85.3403 40.1412 85.3403H41.6751C41.8589 85.3417 41.9681 85.4592 41.9681 85.6416Z" fill="#00B451"/>
<path d="M56.0964 91.194C56.0964 94.7122 53.8192 97.0627 50.3798 97.0627H46.476C46.2895 97.0627 46.1816 96.9467 46.1816 96.7629V85.6431C46.1816 85.4593 46.2909 85.3433 46.476 85.3433H50.3798C53.8192 85.3419 56.0964 87.6758 56.0964 91.194ZM53.9283 91.2272C53.9283 88.9098 52.5644 87.376 50.2871 87.376H48.3194V95.0287H50.2871C52.5644 95.0273 53.9283 93.5114 53.9283 91.2272Z" fill="#00B451"/>
<path d="M67.916 97.0613H66.0409C65.9013 97.0613 65.7783 96.9949 65.6995 96.8609L63.7014 93.7103H63.4375H61.8262V96.7614C61.8262 96.9452 61.7184 97.0613 61.5471 97.0613H59.9829C59.7977 97.0613 59.6885 96.9452 59.6885 96.7614V85.6416C59.6885 85.4579 59.7977 85.3418 59.9829 85.3418H63.577C66.226 85.3418 67.9921 86.9586 67.9921 89.5758C67.9921 91.2423 67.2016 92.5094 65.8543 93.1935L68.1164 96.6937C68.2422 96.912 68.1482 97.0613 67.916 97.0613ZM61.8276 91.6942H63.3919C64.8332 91.6942 65.7783 90.8609 65.7783 89.5772C65.7783 88.1773 64.818 87.3607 63.4085 87.3607H61.8276V91.6942Z" fill="#00B451"/>
<path d="M80.8221 97.0613H79.1639C79.0091 97.0613 78.8999 96.9784 78.8378 96.8112L78.0639 94.7937H73.4001L72.6249 96.8112C72.5628 96.9784 72.455 97.0613 72.3002 97.0613H70.642C70.425 97.0613 70.3324 96.9286 70.4098 96.7117L74.9492 85.5753C74.9962 85.4261 75.1358 85.3418 75.2905 85.3418H76.2205C76.3753 85.3418 76.4996 85.4247 76.5618 85.5753L81.0542 96.7117C81.1316 96.9286 81.039 97.0613 80.8221 97.0613ZM74.0828 92.8438H77.3826L75.741 88.6099L74.0828 92.8438Z" fill="#00B451"/>
<path d="M93.989 91.194C93.989 94.7122 91.7117 97.0627 88.2723 97.0627H84.3685C84.182 97.0627 84.0742 96.9467 84.0742 96.7629V85.6431C84.0742 85.4593 84.182 85.3433 84.3685 85.3433H88.2723C91.7117 85.3419 93.989 87.6758 93.989 91.194ZM91.8209 91.2272C91.8209 88.9098 90.457 87.376 88.1797 87.376H86.212V95.0287H88.1797C90.457 95.0273 91.8209 93.5114 91.8209 91.2272Z" fill="#00B451"/>
<path d="M106.46 97.0613H104.802C104.648 97.0613 104.538 96.9784 104.478 96.8112L103.702 94.7937H99.0386L98.2647 96.8112C98.2025 96.9784 98.0947 97.0613 97.94 97.0613H96.2817C96.0648 97.0613 95.9723 96.9286 96.0496 96.7117L100.589 85.5753C100.636 85.4261 100.776 85.3418 100.93 85.3418H101.86C102.015 85.3418 102.139 85.4247 102.202 85.5753L106.694 96.7117C106.77 96.9286 106.677 97.0613 106.46 97.0613ZM99.7212 92.8438H103.021L101.379 88.6099L99.7212 92.8438Z" fill="#00B451"/>
<path d="M15.8842 106.571C15.8842 108.914 14.3669 110.479 12.0772 110.479H9.47655C9.35219 110.479 9.28027 110.402 9.28027 110.279V102.873C9.28027 102.752 9.35219 102.673 9.47655 102.673H12.0772C14.3669 102.674 15.8842 104.229 15.8842 106.571ZM14.4387 106.593C14.4387 105.05 13.5309 104.029 12.0136 104.029H10.7036V109.125H12.0136C13.5309 109.125 14.4387 108.115 14.4387 106.593Z" fill="#00B451"/>
<path d="M24.5498 109.336V110.28C24.5498 110.402 24.4779 110.48 24.3646 110.48H19.7424C19.618 110.48 19.5461 110.403 19.5461 110.28V102.875C19.5461 102.753 19.618 102.674 19.7424 102.674H24.3232C24.4476 102.674 24.5194 102.752 24.5194 102.875V103.818C24.5194 103.953 24.4476 104.03 24.3232 104.03H20.9694V105.862H23.9003C24.0247 105.862 24.0965 105.94 24.0965 106.074V107.017C24.0965 107.139 24.0247 107.218 23.9003 107.218H20.9694V109.139H24.3633C24.478 109.136 24.5498 109.202 24.5498 109.336Z" fill="#00B451"/>
<path d="M27.8317 109.769C27.7391 109.691 27.7184 109.568 27.7806 109.447L28.2753 108.602C28.3264 108.492 28.43 108.47 28.5337 108.547C29.1431 109.024 29.8133 109.246 30.5153 109.246C31.1661 109.246 31.6498 108.947 31.6498 108.314C31.6498 107.692 31.2366 107.414 30.1532 107.092C28.9261 106.726 27.9657 106.215 27.9657 104.849C27.9657 103.473 29.0187 102.573 30.5761 102.573C31.5461 102.573 32.3089 102.84 32.8561 103.251C32.9598 103.328 32.9598 103.44 32.8976 103.539L32.454 104.327C32.3918 104.449 32.2785 104.471 32.1749 104.393C31.7202 104.082 31.2159 103.904 30.565 103.904C29.9045 103.904 29.4098 104.171 29.4098 104.749C29.4098 105.315 29.8837 105.492 30.8856 105.814C32.1141 106.202 33.062 106.714 33.062 108.213C33.062 109.668 32.0408 110.577 30.4932 110.577C29.3683 110.579 28.5019 110.28 27.8317 109.769Z" fill="#00B451"/>
<path d="M42.7198 110.479H41.6157C41.512 110.479 41.4402 110.424 41.3987 110.312L40.8833 108.969H37.7769L37.2615 110.312C37.22 110.422 37.1482 110.479 37.0445 110.479H35.9404C35.7953 110.479 35.7345 110.391 35.7856 110.245L38.8092 102.829C38.8396 102.73 38.9335 102.674 39.0357 102.674H39.6548C39.7584 102.674 39.84 102.73 39.8815 102.829L42.8731 110.245C42.9257 110.391 42.8635 110.479 42.7198 110.479ZM38.2315 107.67H40.4287L39.3342 104.849L38.2315 107.67Z" fill="#00B451"/>
<path d="M51.6341 110.479H50.3863C50.2937 110.479 50.2108 110.435 50.1596 110.347L48.8289 108.248H48.6534H47.5797V110.279C47.5797 110.4 47.5079 110.479 47.3946 110.479H46.3526C46.2283 110.479 46.1564 110.402 46.1564 110.279V102.873C46.1564 102.752 46.2283 102.673 46.3526 102.673H48.746C50.5106 102.673 51.6866 103.75 51.6866 105.493C51.6866 106.603 51.1601 107.447 50.2633 107.903L51.7695 110.235C51.8511 110.38 51.7888 110.479 51.6341 110.479ZM47.5797 106.904H48.6216C49.5806 106.904 50.2108 106.349 50.2108 105.493C50.2108 104.561 49.571 104.016 48.6327 104.016H47.5797V106.904Z" fill="#00B451"/>
<path d="M60.8575 110.479H59.6097C59.5171 110.479 59.4342 110.435 59.3831 110.346L58.0524 108.247H57.8769H56.8032V110.279C56.8032 110.4 56.7313 110.479 56.618 110.479H55.5761C55.4517 110.479 55.3799 110.402 55.3799 110.279V102.873C55.3799 102.752 55.4517 102.673 55.5761 102.673H57.9694C59.7341 102.673 60.9101 103.749 60.9101 105.493C60.9101 106.603 60.3835 107.447 59.4867 107.903L60.993 110.234C61.0745 110.379 61.0123 110.479 60.8575 110.479ZM56.8032 106.904H57.8451C58.8041 106.904 59.4342 106.349 59.4342 105.493C59.4342 104.56 58.7944 104.016 57.8562 104.016H56.8032V106.904Z" fill="#00B451"/>
<path d="M64.0781 106.594C64.0781 104.329 65.6976 102.574 67.9169 102.574C70.114 102.574 71.7142 104.283 71.7142 106.594C71.7142 108.88 70.1154 110.579 67.9169 110.579C65.6976 110.579 64.0781 108.847 64.0781 106.594ZM70.2577 106.594C70.2577 105.105 69.2573 103.996 67.9155 103.996C66.5434 103.996 65.5318 105.118 65.5318 106.594C65.5318 108.06 66.5434 109.169 67.9155 109.169C69.2573 109.169 70.2577 108.071 70.2577 106.594Z" fill="#00B451"/>
<path d="M80.2855 109.336V110.28C80.2855 110.402 80.2136 110.48 80.0893 110.48H75.5499C75.4255 110.48 75.3536 110.403 75.3536 110.28V102.875C75.3536 102.753 75.4255 102.674 75.5499 102.674H76.5918C76.7051 102.674 76.7769 102.752 76.7769 102.875V109.137H80.0893C80.2136 109.136 80.2855 109.202 80.2855 109.336Z" fill="#00B451"/>
<path d="M88.5089 109.336V110.28C88.5089 110.402 88.437 110.48 88.3126 110.48H83.7732C83.6489 110.48 83.577 110.403 83.577 110.28V102.875C83.577 102.753 83.6489 102.674 83.7732 102.674H84.8152C84.9285 102.674 85.0004 102.752 85.0004 102.875V109.137H88.3126C88.437 109.136 88.5089 109.202 88.5089 109.336Z" fill="#00B451"/>
<path d="M91.0781 106.594C91.0781 104.329 92.6976 102.574 94.9169 102.574C97.114 102.574 98.7142 104.283 98.7142 106.594C98.7142 108.88 97.1154 110.579 94.9169 110.579C92.6976 110.579 91.0781 108.847 91.0781 106.594ZM97.2592 106.594C97.2592 105.105 96.2587 103.996 94.9169 103.996C93.5447 103.996 92.5332 105.118 92.5332 106.594C92.5332 108.06 93.5447 109.169 94.9169 109.169C96.2587 109.169 97.2592 108.071 97.2592 106.594Z" fill="#00B451"/>
<path d="M101.458 109.769C101.365 109.692 101.345 109.569 101.407 109.447L101.901 108.603C101.952 108.492 102.056 108.47 102.16 108.547C102.769 109.024 103.439 109.247 104.141 109.247C104.792 109.247 105.276 108.947 105.276 108.314C105.276 107.692 104.863 107.414 103.779 107.092C102.552 106.726 101.592 106.215 101.592 104.85C101.592 103.473 102.645 102.574 104.202 102.574C105.172 102.574 105.935 102.84 106.482 103.251C106.586 103.328 106.586 103.44 106.524 103.54L106.08 104.327C106.018 104.449 105.905 104.471 105.801 104.394C105.346 104.083 104.842 103.904 104.191 103.904C103.531 103.904 103.036 104.171 103.036 104.749C103.036 105.315 103.51 105.492 104.512 105.814C105.74 106.202 106.688 106.714 106.688 108.213C106.688 109.668 105.667 110.577 104.119 110.577C102.996 110.579 102.129 110.28 101.458 109.769Z" fill="#00B451"/>
</svg>
