<svg width="18" height="18" viewBox="0 0 18 18" fill="none" xmlns="http://www.w3.org/2000/svg">
<path d="M8.99994 16.5C7.94994 16.5 6.96869 16.3031 6.05619 15.9094C5.14369 15.5156 4.34994 14.9813 3.67494 14.3063C2.99994 13.6313 2.46869 12.8344 2.08119 11.9156C1.69369 10.9969 1.49994 10.0125 1.49994 8.9625C1.49994 7.9125 1.69369 6.93438 2.08119 6.02813C2.46869 5.12188 2.99994 4.33125 3.67494 3.65625C4.34994 2.98125 5.14369 2.45313 6.05619 2.07188C6.96869 1.69063 7.94994 1.5 8.99994 1.5C10.0499 1.5 11.0312 1.69063 11.9437 2.07188C12.8562 2.45313 13.6499 2.98125 14.3249 3.65625C14.9999 4.33125 15.5312 5.12188 15.9187 6.02813C16.3062 6.93438 16.4999 7.9125 16.4999 8.9625C16.4999 10.0125 16.3062 10.9969 15.9187 11.9156C15.5312 12.8344 14.9999 13.6313 14.3249 14.3063C13.6499 14.9813 12.8562 15.5156 11.9437 15.9094C11.0312 16.3031 10.0499 16.5 8.99994 16.5ZM11.9624 6.1875H14.7749C14.3624 5.325 13.7968 4.60625 13.0781 4.03125C12.3593 3.45625 11.5312 3.05 10.5937 2.8125C10.9062 3.275 11.1718 3.775 11.3906 4.3125C11.6093 4.85 11.7999 5.475 11.9624 6.1875ZM7.19994 6.1875H10.8374C10.6999 5.525 10.4687 4.88438 10.1437 4.26563C9.81869 3.64688 9.43744 3.1 8.99994 2.625C8.59994 2.9625 8.26244 3.40625 7.98744 3.95625C7.71244 4.50625 7.44994 5.25 7.19994 6.1875ZM2.84994 10.6688H5.83119C5.79369 10.3313 5.77181 10.0281 5.76556 9.75938C5.75931 9.49063 5.75619 9.225 5.75619 8.9625C5.75619 8.65 5.76244 8.37188 5.77494 8.12813C5.78744 7.88438 5.81244 7.6125 5.84994 7.3125H2.84994C2.76244 7.6125 2.70306 7.88125 2.67181 8.11875C2.64056 8.35625 2.62494 8.6375 2.62494 8.9625C2.62494 9.2875 2.64056 9.57813 2.67181 9.83438C2.70306 10.0906 2.76244 10.3688 2.84994 10.6688ZM7.40619 15.1875C7.09369 14.7125 6.82494 14.2 6.59994 13.65C6.37494 13.1 6.18744 12.4813 6.03744 11.7938H3.22494C3.69994 12.6813 4.24994 13.3781 4.87494 13.8844C5.49994 14.3906 6.34369 14.825 7.40619 15.1875ZM3.22494 6.1875H6.05619C6.19369 5.5125 6.36869 4.90938 6.58119 4.37813C6.79369 3.84688 7.06244 3.33125 7.38744 2.83125C6.44994 3.06875 5.63119 3.46875 4.93119 4.03125C4.23119 4.59375 3.66244 5.3125 3.22494 6.1875ZM8.99994 15.4125C9.43744 14.9625 9.80306 14.4469 10.0968 13.8656C10.3906 13.2844 10.6312 12.5938 10.8187 11.7938H7.19994C7.37494 12.5438 7.60931 13.2188 7.90306 13.8188C8.19682 14.4188 8.56244 14.95 8.99994 15.4125ZM6.99369 10.6688H11.0249C11.0749 10.2813 11.1062 9.96563 11.1187 9.72188C11.1312 9.47813 11.1374 9.225 11.1374 8.9625C11.1374 8.7125 11.1312 8.47188 11.1187 8.24063C11.1062 8.00938 11.0749 7.7 11.0249 7.3125H6.99369C6.94369 7.7 6.91244 8.00938 6.89994 8.24063C6.88744 8.47188 6.88119 8.7125 6.88119 8.9625C6.88119 9.225 6.88744 9.47813 6.89994 9.72188C6.91244 9.96563 6.94369 10.2813 6.99369 10.6688ZM10.6124 15.1688C11.5124 14.8813 12.3218 14.45 13.0406 13.875C13.7593 13.3 14.3374 12.6063 14.7749 11.7938H11.9812C11.8187 12.4688 11.6281 13.0813 11.4093 13.6313C11.1906 14.1813 10.9249 14.6938 10.6124 15.1688ZM12.1499 10.6688H15.1499C15.2374 10.3688 15.2968 10.0906 15.3281 9.83438C15.3593 9.57813 15.3749 9.2875 15.3749 8.9625C15.3749 8.6375 15.3593 8.35625 15.3281 8.11875C15.2968 7.88125 15.2374 7.6125 15.1499 7.3125H12.1687C12.2062 7.75 12.2312 8.08438 12.2437 8.31563C12.2562 8.54688 12.2624 8.7625 12.2624 8.9625C12.2624 9.2375 12.2531 9.49688 12.2343 9.74063C12.2156 9.98438 12.1874 10.2938 12.1499 10.6688Z" fill="#E8EEF2"/>
</svg>
