<svg width="24" height="24" viewBox="0 0 24 24" fill="none" xmlns="http://www.w3.org/2000/svg">
<path d="M19.0001 2.99976C19.5305 2.99976 20.0392 3.21047 20.4143 3.58554C20.7893 3.96061 21.0001 4.46932 21.0001 4.99976V18.9998C21.0001 19.5302 20.7893 20.0389 20.4143 20.414C20.0392 20.789 19.5305 20.9998 19.0001 20.9998H5.00006C4.46963 20.9998 3.96092 20.789 3.58585 20.414C3.21077 20.0389 3.00006 19.5302 3.00006 18.9998V4.99976C3.00006 4.46932 3.21077 3.96061 3.58585 3.58554C3.96092 3.21047 4.46963 2.99976 5.00006 2.99976H19.0001ZM18.5001 18.4998V13.1998C18.5001 12.3351 18.1566 11.506 17.5452 10.8946C16.9339 10.2832 16.1047 9.93976 15.2401 9.93976C14.3901 9.93976 13.4001 10.4598 12.9201 11.2398V10.1298H10.1301V18.4998H12.9201V13.5698C12.9201 12.7998 13.5401 12.1698 14.3101 12.1698C14.6814 12.1698 15.0375 12.3173 15.3 12.5798C15.5626 12.8424 15.7101 13.1985 15.7101 13.5698V18.4998H18.5001ZM6.88006 8.55976C7.32562 8.55976 7.75294 8.38276 8.068 8.0677C8.38306 7.75263 8.56006 7.32532 8.56006 6.87976C8.56006 5.94976 7.81006 5.18976 6.88006 5.18976C6.43185 5.18976 6.00199 5.36781 5.68505 5.68475C5.36811 6.00168 5.19006 6.43154 5.19006 6.87976C5.19006 7.80976 5.95006 8.55976 6.88006 8.55976ZM8.27006 18.4998V10.1298H5.50006V18.4998H8.27006Z" fill="#E0E0E0"/>
</svg>
