<svg width="32" height="32" viewBox="0 0 32 32" fill="none" xmlns="http://www.w3.org/2000/svg">
<rect width="32" height="32" rx="16" fill="white" fill-opacity="0.12"/>
<path d="M14.9839 21.3615C14.9819 21.3675 14.9799 21.3739 14.9779 21.3799C14.9803 21.3739 14.9827 21.3675 14.9847 21.3615H14.9839ZM16.7169 21.3843H16.7165C16.7181 21.3891 16.7197 21.3943 16.7217 21.3991C16.7197 21.3943 16.7181 21.3895 16.7169 21.3843ZM14.8408 19.8796C14.8428 19.8828 14.8448 19.8868 14.846 19.8904H14.8464C14.8448 19.8864 14.8428 19.8832 14.8408 19.8796Z" fill="white"/>
<path d="M26.5444 18.4626C26.3534 17.9423 26.0474 17.4823 25.7808 17.002C25.2358 16.0193 24.6792 15.043 24.1274 14.0644C23.6702 13.2534 23.2139 12.4412 22.7568 11.6302C22.1454 10.5455 21.5336 9.46072 20.9215 8.37676C20.7257 8.02972 20.5583 7.66306 20.3273 7.34164C20.275 7.26839 20.2214 7.19714 20.1679 7.1279C20.1319 7.08146 20.0951 7.03583 20.0588 6.991C20.0404 6.96819 20.0224 6.94577 20.0036 6.92416C19.9481 6.85811 19.8918 6.79367 19.8346 6.73082C18.7885 5.57962 17.4803 5 15.9183 5C15.6849 5 15.446 5.01282 15.2011 5.03884C14.3212 5.1321 13.5244 5.46512 12.802 5.97428C12.2565 6.35895 11.7838 6.82169 11.4366 7.39209C11.0874 7.96489 10.7789 8.56209 10.452 9.1489C9.94814 10.0539 9.44427 10.959 8.93999 11.8636C8.34182 12.936 7.74244 14.0083 7.14466 15.0807C6.63879 15.9885 6.1365 16.8983 5.62743 17.8046C5.03805 18.8549 4.84826 19.9741 5.12477 21.1441C5.53914 22.8961 6.64358 24.0441 8.32942 24.6297C9.0199 24.8695 9.72557 24.9728 10.4404 24.9728C10.7957 24.9728 11.1529 24.9472 11.5117 24.9007C12.5171 24.7694 13.4093 24.3852 14.1657 23.7039C14.7651 23.1635 15.2638 22.5447 15.5799 21.7938C15.7229 21.4539 15.8012 21.0997 15.7884 20.7282C15.7848 20.5933 15.7713 20.4588 15.7461 20.3259C15.6602 19.8752 15.4568 19.4761 15.2015 19.1011C14.8902 18.644 14.5198 18.2345 14.1729 17.8054C13.8441 17.3991 13.5388 16.9792 13.3374 16.4921C12.9674 15.5974 12.9402 14.6768 13.15 13.7441C13.4601 12.3652 14.1162 11.1619 15.0284 10.092C15.2686 9.81057 15.5335 9.55519 15.7996 9.29901C15.7725 9.27819 15.7421 9.27379 15.7113 9.27379C15.6985 9.27379 15.6853 9.2746 15.6726 9.2754C15.3397 9.29021 15.0121 9.33385 14.6876 9.4051L14.6872 9.40549C14.5885 9.4267 14.491 9.45111 14.3931 9.47833C13.5256 9.7169 12.7576 10.1416 12.0919 10.7436C11.4686 11.3076 10.9886 11.9789 10.6602 12.7562C10.4085 13.3514 10.2558 13.9719 10.2187 14.6163C10.1711 15.4377 10.2794 16.2383 10.5723 17.0124C10.8512 17.7485 11.2628 18.399 11.8038 18.967C12.1698 19.3513 12.5846 19.6767 13.0453 19.9421C13.5408 20.2283 14.0654 20.4412 14.6237 20.5709C14.7723 20.6057 14.9214 20.6325 15.072 20.6542C15.0744 20.685 15.0764 20.717 15.0772 20.749V20.7534C15.084 20.9536 15.0536 21.1533 14.9829 21.3615H14.9833C14.9813 21.3675 14.9789 21.3739 14.9765 21.3799C14.9745 21.3867 14.9721 21.3931 14.9693 21.3999C14.9649 21.4127 14.9601 21.4255 14.9549 21.4387C14.9453 21.4643 14.9349 21.4903 14.9238 21.5168C14.6748 22.108 14.2708 22.65 13.689 23.1743C13.0569 23.7439 12.3141 24.0774 11.419 24.1938C11.0814 24.2379 10.7517 24.2603 10.4392 24.2603C9.76354 24.2603 9.14938 24.161 8.56119 23.9569C7.06475 23.4365 6.16648 22.463 5.81604 20.98C5.58549 20.0057 5.72653 19.0811 6.24679 18.1544C6.57005 17.5776 6.89652 16.99 7.2118 16.422C7.3956 16.091 7.57982 15.7591 7.76442 15.4285C8.09088 14.8425 8.41732 14.2577 8.74418 13.6725C9.0159 13.1853 9.28763 12.6986 9.55935 12.211C9.99889 11.4229 10.438 10.6344 10.8772 9.8454L11.0718 9.49635C11.174 9.31262 11.2756 9.12689 11.3735 8.94677C11.5976 8.53448 11.8098 8.14541 12.0428 7.76315C12.3169 7.31243 12.6993 6.91775 13.2103 6.5567C13.8644 6.09517 14.5585 5.82298 15.2746 5.74693C15.4932 5.72371 15.7089 5.7121 15.9167 5.7121C17.507 5.7121 18.7601 6.38097 19.7475 7.75754C19.879 7.94046 19.9937 8.157 20.1151 8.38596C20.1739 8.49724 20.235 8.61213 20.3001 8.72741C20.9123 9.81097 21.5241 10.8957 22.1354 11.9801C22.3868 12.4256 22.6373 12.8715 22.8882 13.3166C23.094 13.6829 23.2998 14.0487 23.5064 14.4146C23.6758 14.7148 23.8456 15.0146 24.0147 15.3148C24.3911 15.9805 24.7807 16.6686 25.1571 17.3475C25.2286 17.4767 25.3021 17.6032 25.3732 17.7253C25.569 18.0616 25.7541 18.3794 25.8747 18.7084C26.6008 20.6834 25.7057 22.8577 23.7937 23.7652C23.2922 24.0033 22.754 24.1566 22.1486 24.2347C21.8669 24.2707 21.5768 24.2887 21.2851 24.2887C21.0266 24.2887 20.7601 24.2743 20.4927 24.2459C19.2093 24.1094 18.1779 23.5246 17.3392 22.4578C17.2461 22.3393 17.1638 22.2265 17.0903 22.1172C17.0807 22.1036 17.0719 22.0896 17.0631 22.0764C17.0499 22.0563 17.0372 22.0363 17.0248 22.0163C17.0128 21.9983 17.002 21.9803 16.9912 21.9623C16.9656 21.9211 16.9412 21.8798 16.9193 21.8386C16.9137 21.8286 16.9085 21.8186 16.9033 21.809C16.8929 21.7902 16.8825 21.771 16.8729 21.7521C16.8653 21.7373 16.8577 21.7225 16.8505 21.7081C16.8401 21.6877 16.8306 21.6677 16.8218 21.6477C16.8098 21.6224 16.7986 21.5972 16.7882 21.5724C16.7754 21.5424 16.7634 21.5132 16.7522 21.4836C16.7442 21.4631 16.7366 21.4431 16.7299 21.4227C16.7271 21.4143 16.7239 21.4059 16.7215 21.3979C16.7195 21.3931 16.7179 21.3879 16.7163 21.3831H16.7167C16.6959 21.3218 16.6783 21.261 16.6635 21.2002C16.6244 21.0376 16.608 20.8927 16.6144 20.7554C16.6152 20.729 16.6172 20.7026 16.6196 20.6766C16.6839 20.669 16.7482 20.6598 16.8122 20.6494C17.6213 20.5177 18.3706 20.2319 19.0578 19.7808C19.6444 19.3961 20.1431 18.9186 20.5531 18.3506C20.9335 17.825 21.2172 17.2502 21.4006 16.6265C21.624 15.866 21.6975 15.0923 21.598 14.3057C21.5037 13.5584 21.2815 12.8515 20.9099 12.193C20.5854 11.619 20.1791 11.1111 19.6824 10.6784C19.2301 10.2845 18.7282 9.96749 18.1751 9.73212C17.8031 9.57401 17.4235 9.45432 17.0343 9.37787C16.6927 9.30902 16.3443 9.27379 15.9886 9.27379H15.9659C15.9283 9.27379 15.8907 9.2722 15.8584 9.29502C16.4294 9.74694 16.9444 10.2541 17.3736 10.8437C18.186 11.9605 18.7446 13.1793 18.8325 14.5807C18.8704 15.1939 18.7757 15.788 18.5504 16.3604C18.3238 16.9368 17.9514 17.4159 17.551 17.8786C17.181 18.3057 16.7902 18.7152 16.4677 19.1823C16.1465 19.6479 15.9283 20.1506 15.9039 20.7246C15.8939 20.9424 15.9215 21.1565 15.9722 21.3675C16.1121 21.9463 16.419 22.437 16.7814 22.8973C17.7124 24.0818 18.9108 24.7931 20.418 24.9536C20.7073 24.9844 20.9966 25 21.2859 25C21.604 25 21.9224 24.9804 22.2401 24.9396C22.8874 24.8563 23.5088 24.6878 24.0994 24.4076C26.3574 23.3384 27.3907 20.7646 26.5444 18.4626ZM14.847 19.8904C14.8267 19.886 14.8067 19.8812 14.7863 19.8768C14.3128 19.7671 13.8473 19.581 13.4013 19.3244C13.001 19.0939 12.6373 18.8081 12.3201 18.4754C11.845 17.9767 11.4809 17.3995 11.2388 16.7594C10.991 16.1062 10.8872 15.3993 10.9303 14.658C10.9615 14.1124 11.0917 13.5668 11.3163 13.034C11.6012 12.3604 12.0232 11.7675 12.5698 11.2728C12.9654 10.9153 13.4029 10.6295 13.8784 10.4178C13.8684 10.4326 13.8581 10.4466 13.8481 10.4614C13.8285 10.4894 13.8093 10.5175 13.7901 10.5459C13.753 10.6007 13.7166 10.6556 13.6806 10.7112C13.6431 10.7696 13.6055 10.8281 13.5696 10.8869C13.55 10.9182 13.5308 10.9502 13.5116 10.9818C13.4932 11.0126 13.4745 11.043 13.4565 11.0739C13.2823 11.3709 13.1268 11.6735 12.9902 11.9813C12.9794 12.0057 12.969 12.0293 12.9586 12.0533C12.915 12.153 12.8739 12.2535 12.8347 12.354C12.8227 12.3836 12.8115 12.4132 12.8 12.4432C12.7956 12.4552 12.7908 12.4676 12.7868 12.4792C12.7772 12.5049 12.7676 12.5301 12.7588 12.5557C12.7368 12.6149 12.7165 12.6746 12.6961 12.7338C12.6917 12.7466 12.6877 12.7594 12.6833 12.7722C12.6733 12.8023 12.6637 12.8315 12.6545 12.8615C12.6437 12.8955 12.6325 12.93 12.6221 12.964C12.6014 13.0324 12.5814 13.1013 12.5618 13.1701C12.5522 13.2049 12.543 13.239 12.5338 13.2738C12.5259 13.3034 12.5182 13.3322 12.5111 13.3619C12.5079 13.3743 12.5043 13.3871 12.5015 13.3995C12.4947 13.4259 12.4883 13.4531 12.4815 13.4803C12.4731 13.516 12.4647 13.5516 12.4567 13.5872C12.2014 14.7204 12.2769 15.7892 12.6809 16.765C12.9246 17.3546 13.293 17.8486 13.6211 18.2541C13.7234 18.3806 13.8273 18.5051 13.9284 18.6255C14.1769 18.9229 14.4119 19.2044 14.6149 19.5022C14.6297 19.5242 14.6444 19.5458 14.658 19.5674C14.6724 19.5894 14.686 19.6102 14.6992 19.6315C14.7276 19.6771 14.7547 19.7219 14.7799 19.7655C14.7899 19.7835 14.7995 19.8008 14.8087 19.8184C14.8198 19.8388 14.8306 19.8592 14.841 19.8792C14.843 19.8828 14.845 19.8864 14.8466 19.89H14.847V19.8904ZM16.8781 19.872C16.8865 19.856 16.8961 19.8392 16.9057 19.8228C16.9105 19.8148 16.9157 19.806 16.9205 19.7976C16.9312 19.7792 16.9428 19.7603 16.9544 19.7415C16.9696 19.7163 16.9856 19.6911 17.0024 19.6659C17.0192 19.6403 17.0359 19.615 17.0535 19.5894C17.2749 19.2684 17.539 18.9698 17.8191 18.6544C17.9078 18.5547 17.9989 18.451 18.0888 18.3469C18.5132 17.857 18.9432 17.309 19.2129 16.6237C19.4766 15.9533 19.5877 15.2516 19.5429 14.5375C19.4542 13.1233 18.9332 11.778 17.949 10.425C17.9442 10.4182 17.939 10.4118 17.9342 10.405C18.3969 10.6063 18.8281 10.8797 19.2161 11.2176C19.6408 11.5878 20.0024 12.0349 20.2909 12.5453C20.6058 13.1025 20.8084 13.7249 20.8927 14.3962C20.977 15.0631 20.9183 15.7463 20.7185 16.4264C20.5595 16.9668 20.3105 17.4739 19.9777 17.9339C19.6189 18.4302 19.1781 18.8517 18.6682 19.1863C18.1176 19.5474 17.5078 19.7936 16.8521 19.9201C16.8605 19.904 16.8693 19.888 16.8781 19.872Z" fill="white"/>
</svg>
