<svg width="22" height="20" viewBox="0 0 22 20" fill="none" xmlns="http://www.w3.org/2000/svg">
<path d="M21.5444 13.4626C21.3534 12.9423 21.0473 12.4823 20.7808 12.002C20.2358 11.0193 19.6792 10.043 19.1274 9.06435C18.6702 8.25339 18.2139 7.44122 17.7568 6.63025C17.1454 5.54549 16.5336 4.46072 15.9215 3.37676C15.7257 3.02972 15.5583 2.66306 15.3273 2.34164C15.275 2.26839 15.2214 2.19714 15.1679 2.1279C15.1319 2.08146 15.0951 2.03583 15.0588 1.991C15.0404 1.96819 15.0224 1.94577 15.0036 1.92416C14.9481 1.85811 14.8918 1.79367 14.8346 1.73082C13.7885 0.579615 12.4803 0 10.9183 0C10.6849 0 10.446 0.0128176 10.2011 0.0388358C9.32118 0.132101 8.52441 0.465119 7.80196 0.974276C7.25653 1.35895 6.78383 1.82169 6.43659 2.39209C6.08735 2.96489 5.77887 3.56209 5.45201 4.1489C4.94814 5.05394 4.44427 5.95898 3.93999 6.86361C3.34182 7.93597 2.74244 9.0083 2.14466 10.0807C1.63879 10.9885 1.1365 11.8983 0.627433 12.8046C0.0380477 13.8549 -0.151738 14.9741 0.124774 16.1441C0.539141 17.8961 1.64358 19.0441 3.32942 19.6297C4.0199 19.8695 4.72557 19.9728 5.44042 19.9728C5.79565 19.9728 6.15288 19.9472 6.51171 19.9007C7.51706 19.7694 8.40932 19.3852 9.16573 18.7039C9.76511 18.1635 10.2638 17.5447 10.5799 16.7938C10.7229 16.4539 10.8012 16.0997 10.7884 15.7282C10.7848 15.5933 10.7713 15.4588 10.7461 15.3259C10.6602 14.8752 10.4568 14.4761 10.2015 14.1011C9.89018 13.644 9.51977 13.2345 9.17293 12.8054C8.84408 12.3991 8.53879 11.9792 8.3374 11.4921C7.96739 10.5974 7.94022 9.67678 8.15 8.74413C8.46007 7.36516 9.11618 6.16191 10.0284 5.09196C10.2686 4.81057 10.5335 4.55519 10.7996 4.29901C10.7725 4.27819 10.7421 4.27379 10.7113 4.27379C10.6985 4.27379 10.6853 4.2746 10.6726 4.2754C10.3397 4.29021 10.0121 4.33385 9.68759 4.4051L9.6872 4.40549C9.58851 4.4267 9.49099 4.45111 9.3931 4.47833C8.5256 4.7169 7.75761 5.14161 7.0919 5.74363C6.46855 6.30763 5.98865 6.97889 5.66019 7.75623C5.40845 8.35145 5.25582 8.97189 5.21866 9.61634C5.17111 10.4377 5.27938 11.2383 5.57228 12.0124C5.85118 12.7485 6.26277 13.399 6.8038 13.967C7.16982 14.3513 7.58458 14.6767 8.0453 14.9421C8.54078 15.2283 9.06544 15.4412 9.62366 15.5709C9.7723 15.6057 9.92135 15.6325 10.072 15.6542C10.0744 15.685 10.0764 15.717 10.0772 15.749V15.7534C10.084 15.9536 10.0536 16.1533 9.98289 16.3615H9.98328C9.98128 16.3675 9.97889 16.3739 9.97649 16.3799C9.97449 16.3867 9.97209 16.3931 9.96929 16.3999C9.9649 16.4127 9.96011 16.4255 9.95491 16.4387C9.94532 16.4643 9.93494 16.4903 9.92375 16.5168C9.67481 17.108 9.27082 17.65 8.68902 18.1743C8.05688 18.7439 7.31408 19.0774 6.41901 19.1938C6.08136 19.2379 5.7517 19.2603 5.43923 19.2603C4.76354 19.2603 4.14938 19.161 3.56119 18.9569C2.06475 18.4365 1.16648 17.463 0.816045 15.98C0.585485 15.0057 0.72653 14.0811 1.24679 13.1544C1.57005 12.5776 1.89652 11.99 2.2118 11.422C2.3956 11.091 2.57982 10.7591 2.76442 10.4285C3.09088 9.8425 3.41732 9.25769 3.74418 8.67248C4.0159 8.18534 4.28763 7.69859 4.55935 7.21105C4.99889 6.42289 5.43803 5.63436 5.87717 4.8454L6.07175 4.49635C6.17405 4.31262 6.27555 4.12689 6.37345 3.94677C6.59762 3.53448 6.8098 3.14541 7.04275 2.76315C7.31687 2.31243 7.69926 1.91775 8.21032 1.5567C8.86444 1.09517 9.55853 0.822982 10.2746 0.746929C10.4931 0.723713 10.7089 0.7121 10.9167 0.7121C12.507 0.7121 13.7601 1.38097 14.7475 2.75754C14.879 2.94046 14.9937 3.157 15.1151 3.38596C15.1739 3.49724 15.235 3.61213 15.3001 3.72741C15.9123 4.81097 16.5241 5.89572 17.1354 6.98008C17.3868 7.42559 17.6373 7.87151 17.8882 8.31662C18.094 8.68288 18.2998 9.04874 18.5064 9.4146C18.6758 9.71481 18.8456 10.0146 19.0147 10.3148C19.3911 10.9805 19.7807 11.6686 20.1571 12.3475C20.2286 12.4767 20.3021 12.6032 20.3732 12.7253C20.569 13.0616 20.7541 13.3794 20.8747 13.7084C21.6008 15.6834 20.7057 17.8577 18.7937 18.7652C18.2922 19.0033 17.754 19.1566 17.1486 19.2347C16.8669 19.2707 16.5768 19.2887 16.2851 19.2887C16.0266 19.2887 15.7601 19.2743 15.4927 19.2459C14.2093 19.1094 13.1779 18.5246 12.3392 17.4578C12.2461 17.3393 12.1638 17.2265 12.0903 17.1172C12.0807 17.1036 12.0719 17.0896 12.0631 17.0764C12.0499 17.0563 12.0372 17.0363 12.0248 17.0163C12.0128 16.9983 12.002 16.9803 11.9912 16.9623C11.9656 16.9211 11.9412 16.8798 11.9193 16.8386C11.9137 16.8286 11.9085 16.8186 11.9033 16.809C11.8929 16.7902 11.8825 16.771 11.8729 16.7521C11.8653 16.7373 11.8577 16.7225 11.8505 16.7081C11.8401 16.6877 11.8306 16.6677 11.8218 16.6477C11.8098 16.6224 11.7986 16.5972 11.7882 16.5724C11.7754 16.5424 11.7634 16.5132 11.7522 16.4836C11.7442 16.4631 11.7366 16.4431 11.7299 16.4227C11.7271 16.4143 11.7239 16.4059 11.7215 16.3979C11.7195 16.3931 11.7179 16.3879 11.7163 16.3831H11.7167C11.6959 16.3218 11.6783 16.261 11.6635 16.2002C11.6244 16.0376 11.608 15.8927 11.6144 15.7554C11.6152 15.729 11.6172 15.7026 11.6196 15.6766C11.6839 15.669 11.7482 15.6598 11.8122 15.6494C12.6213 15.5177 13.3706 15.2319 14.0578 14.7808C14.6444 14.3961 15.1431 13.9186 15.5531 13.3506C15.9335 12.825 16.2172 12.2502 16.4006 11.6265C16.624 10.866 16.6975 10.0923 16.598 9.30572C16.5037 8.55839 16.2815 7.85151 15.9099 7.19304C15.5855 6.61904 15.1791 6.11107 14.6824 5.67837C14.2301 5.28449 13.7282 4.96749 13.1751 4.73212C12.8031 4.57401 12.4235 4.45432 12.0343 4.37787C11.6927 4.30902 11.3443 4.27379 10.9886 4.27379H10.9659C10.9283 4.27379 10.8907 4.2722 10.8584 4.29502C11.4294 4.74694 11.9444 5.25409 12.3736 5.8437C13.186 6.96048 13.7446 8.17933 13.8325 9.58071C13.8704 10.1939 13.7757 10.788 13.5504 11.3604C13.3238 11.9368 12.9514 12.4159 12.551 12.8786C12.181 13.3057 11.7902 13.7152 11.4677 14.1823C11.1465 14.6479 10.9283 15.1506 10.9039 15.7246C10.8939 15.9424 10.9215 16.1565 10.9722 16.3675C11.1121 16.9463 11.419 17.437 11.7814 17.8973C12.7124 19.0818 13.9108 19.7931 15.418 19.9536C15.7073 19.9844 15.9966 20 16.2859 20C16.604 20 16.9224 19.9804 17.2401 19.9396C17.8874 19.8563 18.5088 19.6878 19.0994 19.4076C21.3574 18.3384 22.3907 15.7646 21.5444 13.4626ZM9.84704 14.8904C9.82666 14.886 9.80668 14.8812 9.7863 14.8768C9.31279 14.7671 8.84727 14.581 8.40134 14.3244C8.00095 14.0939 7.63733 13.8081 7.32006 13.4754C6.84496 12.9767 6.48093 12.3995 6.23879 11.7594C5.99105 11.1062 5.88717 10.3993 5.93032 9.65797C5.96149 9.11239 6.09174 8.5668 6.3163 8.03402C6.60121 7.36035 7.02317 6.76754 7.5698 6.27279C7.96539 5.91534 8.40293 5.62955 8.87844 5.4178C8.86845 5.43261 8.85807 5.44661 8.84808 5.46142C8.8285 5.48944 8.80931 5.51748 8.79013 5.5459C8.75297 5.60073 8.7166 5.65557 8.68064 5.71121C8.64307 5.76965 8.60552 5.82809 8.56956 5.88693C8.54998 5.91816 8.53079 5.95016 8.51161 5.98179C8.49323 6.01261 8.47446 6.04304 8.45647 6.07386C8.28226 6.37087 8.12682 6.67348 7.99016 6.98129C7.97937 7.00571 7.96898 7.02932 7.9586 7.05334C7.91504 7.15301 7.87388 7.25349 7.83472 7.35396C7.82273 7.38358 7.81154 7.4132 7.79995 7.44322C7.79556 7.45523 7.79078 7.46763 7.78678 7.47924C7.77719 7.50486 7.76759 7.53008 7.7588 7.5557C7.73683 7.61494 7.71645 7.67457 7.69608 7.73381C7.69168 7.74662 7.68767 7.75943 7.68328 7.77224C7.67329 7.80226 7.66371 7.83148 7.65452 7.8615C7.64373 7.89552 7.63254 7.92995 7.62215 7.96397C7.60137 8.03242 7.58138 8.10127 7.5618 8.17012C7.55221 8.20494 7.54303 8.23898 7.53384 8.2738C7.52585 8.30342 7.51825 8.33223 7.51105 8.36185C7.50786 8.37426 7.50427 8.38707 7.50147 8.39948C7.49468 8.42589 7.48829 8.45311 7.48149 8.48033C7.4731 8.51596 7.46471 8.5516 7.45672 8.58722C7.20138 9.72042 7.2769 10.7892 7.68088 11.765C7.92462 12.3546 8.29305 12.8486 8.62111 13.2541C8.7234 13.3806 8.82729 13.5051 8.92838 13.6255C9.17692 13.9229 9.41189 14.2044 9.61488 14.5022C9.62966 14.5242 9.64443 14.5458 9.65801 14.5674C9.6724 14.5894 9.686 14.6102 9.69918 14.6315C9.72755 14.6771 9.75472 14.7219 9.7799 14.7655C9.78989 14.7835 9.79947 14.8008 9.80866 14.8184C9.81985 14.8388 9.83064 14.8592 9.84103 14.8792C9.84302 14.8828 9.84503 14.8864 9.84663 14.89H9.84704V14.8904ZM11.8781 14.872C11.8865 14.856 11.8961 14.8392 11.9057 14.8228C11.9105 14.8148 11.9157 14.806 11.9205 14.7976C11.9312 14.7792 11.9428 14.7603 11.9544 14.7415C11.9696 14.7163 11.9856 14.6911 12.0024 14.6659C12.0192 14.6403 12.0359 14.615 12.0535 14.5894C12.2749 14.2684 12.539 13.9698 12.8191 13.6544C12.9078 13.5547 12.9989 13.451 13.0889 13.3469C13.5132 12.857 13.9432 12.309 14.2129 11.6237C14.4766 10.9533 14.5877 10.2516 14.5429 9.53748C14.4542 8.12329 13.9332 6.77796 12.949 5.42501C12.9442 5.4182 12.939 5.4118 12.9342 5.405C13.3969 5.60634 13.8281 5.87972 14.2161 6.21756C14.6408 6.58782 15.0024 7.03493 15.2909 7.54528C15.6058 8.10247 15.8084 8.72492 15.8927 9.39619C15.977 10.0631 15.9183 10.7463 15.7185 11.4264C15.5595 11.9668 15.3105 12.4739 14.9777 12.9339C14.6189 13.4302 14.1781 13.8517 13.6682 14.1863C13.1176 14.5474 12.5078 14.7936 11.8521 14.9201C11.8605 14.904 11.8693 14.888 11.8781 14.872Z" fill="white"/>
</svg>
