<svg width="120" height="28" viewBox="0 0 120 28" fill="none" xmlns="http://www.w3.org/2000/svg">
<path d="M39.5193 12.1428V13.3618C39.5193 13.52 39.4245 13.6199 39.2624 13.6199H33.3097C33.1476 13.6199 33.0528 13.5194 33.0528 13.3618V3.79544C33.0528 3.63784 33.1476 3.53735 33.3097 3.53735H34.676C34.8247 3.53735 34.9195 3.63784 34.9195 3.79544V11.8847H39.2619C39.4245 11.8847 39.5193 11.9709 39.5193 12.1428Z" fill="black"/>
<path d="M50.1928 13.62H48.7451C48.6099 13.62 48.5151 13.5486 48.4608 13.4053L47.7843 11.6695H43.7123L43.0358 13.4053C42.982 13.5486 42.8867 13.62 42.7515 13.62H41.3038C41.1143 13.62 41.0329 13.5052 41.1008 13.3191L45.0656 3.73785C45.106 3.6088 45.2278 3.53687 45.3635 3.53687H46.1751C46.3103 3.53687 46.4185 3.6088 46.4729 3.73785L50.3958 13.3191C50.4636 13.5052 50.3823 13.62 50.1928 13.62ZM44.3084 9.99134H47.1897L45.7561 6.34841L44.3084 9.99134Z" fill="black"/>
<path d="M61.5964 3.79551V13.3619C61.5964 13.5338 61.5016 13.62 61.3395 13.62H60.5786C60.4434 13.62 60.2958 13.4443 60.2958 13.4443L54.873 6.99364V13.3619C54.873 13.52 54.7782 13.62 54.6161 13.62H53.2901C53.141 13.62 53.0467 13.5195 53.0467 13.3619V3.79496C53.0467 3.63681 53.1415 3.53687 53.2901 3.53687H54.0681C54.2033 3.53687 54.3188 3.69337 54.3188 3.69337L59.7566 10.1632V3.79551C59.7566 3.63791 59.8514 3.53741 60.0001 3.53741H61.3395C61.5021 3.53687 61.5964 3.63736 61.5964 3.79551Z" fill="black"/>
<path d="M73.9343 8.57123C73.9343 11.5975 71.9459 13.6199 68.9424 13.6199H65.5333C65.3711 13.6199 65.2764 13.5194 65.2764 13.3618V3.79544C65.2764 3.63784 65.3711 3.53735 65.5333 3.53735H68.9424C71.9454 3.5368 73.9343 5.54497 73.9343 8.57123ZM72.0402 8.60033C72.0402 6.60644 70.8499 5.28688 68.861 5.28688H67.143V11.8704H68.861C70.8499 11.8704 72.0402 10.5651 72.0402 8.60033Z" fill="black"/>
<path d="M84.2561 13.6199H82.6189C82.4972 13.6199 82.3889 13.5628 82.3211 13.448L80.5761 10.737H80.3462H78.9389V13.3618C78.9389 13.52 78.8441 13.6199 78.6955 13.6199H77.3292C77.167 13.6199 77.0723 13.5194 77.0723 13.3618V3.79544C77.0723 3.63784 77.167 3.53735 77.3292 3.53735H80.4679C82.781 3.53735 84.3235 4.92885 84.3235 7.18028C84.3235 8.61461 83.6336 9.70463 82.4568 10.2927L84.4322 13.3047C84.54 13.4909 84.4586 13.6199 84.2561 13.6199ZM78.9394 9.00174H80.3058C81.5639 9.00174 82.3895 8.28458 82.3895 7.18028C82.3895 5.97549 81.5504 5.2726 80.3198 5.2726H78.94V9.00174H78.9394Z" fill="black"/>
<path d="M95.5253 13.62H94.0776C93.9424 13.62 93.8477 13.5486 93.7933 13.4053L93.1168 11.6695H89.0448L88.3684 13.4053C88.3145 13.5486 88.2197 13.62 88.0845 13.62H86.6369C86.4473 13.62 86.366 13.5052 86.4338 13.3191L90.3977 3.73785C90.4381 3.6088 90.5603 3.53687 90.6955 3.53687H91.5071C91.6423 3.53687 91.7505 3.6088 91.8049 3.73785L95.7283 13.3191C95.7956 13.5052 95.7143 13.62 95.5253 13.62ZM89.6404 9.99134H92.5217L91.0881 6.34841L89.6404 9.99134Z" fill="black"/>
<path d="M107.024 8.57123C107.024 11.5975 105.035 13.6199 102.032 13.6199H98.6231C98.461 13.6199 98.3662 13.5194 98.3662 13.3618V3.79544C98.3662 3.63784 98.461 3.53735 98.6231 3.53735H102.032C105.035 3.5368 107.024 5.54497 107.024 8.57123ZM105.13 8.60033C105.13 6.60644 103.939 5.28688 101.951 5.28688H100.233V11.8704H101.951C103.939 11.8704 105.13 10.5651 105.13 8.60033Z" fill="black"/>
<path d="M117.914 13.62H116.466C116.331 13.62 116.236 13.5486 116.182 13.4053L115.506 11.6695H111.434L110.757 13.4053C110.704 13.5486 110.608 13.62 110.473 13.62H109.025C108.836 13.62 108.755 13.5052 108.822 13.3191L112.786 3.73785C112.827 3.6088 112.948 3.53687 113.084 3.53687H113.896C114.031 3.53687 114.139 3.6088 114.193 3.73785L118.116 13.3191C118.185 13.5052 118.103 13.62 117.914 13.62ZM112.029 9.99134H114.911L113.477 6.34841L112.029 9.99134Z" fill="black"/>
<path d="M12.7946 6.96994C12.8142 6.94798 12.8355 6.94633 12.8577 6.9661C13.4813 7.48832 14.0443 8.07479 14.5126 8.75626C15.3998 10.0473 16.0099 11.4563 16.1058 13.0757C16.1477 13.7846 16.0441 14.4716 15.7981 15.1333C15.5505 15.7994 15.1439 16.3535 14.7068 16.8883C14.3028 17.382 13.876 17.8553 13.5238 18.3951C13.1732 18.9333 12.9344 19.5137 12.9075 20.1771C12.8966 20.4286 12.9266 20.6762 12.9826 20.92C13.1354 21.5889 13.4705 22.1561 13.8662 22.6882C14.8829 24.0572 16.1917 24.8793 17.8378 25.0643C18.5012 25.139 19.1642 25.139 19.8277 25.0489C20.5347 24.9528 21.2132 24.7579 21.858 24.4339C24.3229 23.1956 25.451 20.2215 24.5275 17.561C24.3188 16.9597 23.9847 16.4276 23.6936 15.873C23.0985 14.7374 22.4904 13.6095 21.8881 12.4783C21.3888 11.5403 20.8905 10.6024 20.3912 9.66452C19.7236 8.41086 19.0549 7.15774 18.3868 5.90408C18.1729 5.50322 17.99 5.07929 17.7378 4.70753C16.3606 2.67685 14.4877 1.78231 12.1399 2.04535C11.1791 2.15298 10.3089 2.53792 9.52064 3.12658C8.92501 3.57138 8.4081 4.10623 8.02948 4.76519C7.64828 5.42744 7.3111 6.11769 6.95424 6.79587C6.40366 7.84196 5.85361 8.88805 5.30252 9.9336C4.64939 11.173 3.99523 12.4124 3.34211 13.6523C2.78946 14.7017 2.24096 15.7533 1.68573 16.8005C1.04141 18.0146 0.834233 19.3078 1.13619 20.6603C1.58887 22.6855 2.79464 24.0122 4.63541 24.6893C5.76452 25.1044 6.93041 25.1648 8.1108 25.0023C9.20936 24.8507 10.1831 24.407 11.0092 23.619C11.6639 22.9946 12.2082 22.2797 12.5537 21.4115C12.7101 21.0189 12.7956 20.6092 12.7816 20.1804C12.7775 20.0239 12.763 19.869 12.7355 19.7152C12.6418 19.1941 12.4201 18.7328 12.1414 18.2996C11.8017 17.7713 11.3971 17.2974 11.018 16.8021C10.6591 16.3326 10.3255 15.8472 10.1054 15.2843C9.70088 14.2503 9.67136 13.1855 9.90081 12.1081C10.2395 10.5146 10.9559 9.12363 11.9524 7.88699C12.2145 7.56135 12.5045 7.26592 12.7946 6.96994Z" fill="#1F8B4F"/>
<path d="M12.7822 20.1799C12.7961 20.6088 12.7107 21.019 12.5543 21.411C12.2088 22.2792 11.6644 22.9942 11.0098 23.6185C10.1836 24.4065 9.2094 24.8502 8.11136 25.0018C6.93097 25.1643 5.76508 25.1039 4.63597 24.6888C2.7952 24.0117 1.58943 22.6856 1.13675 20.6598C0.834272 19.3073 1.04145 18.0141 1.68577 16.8C2.24152 15.7528 2.79002 14.7012 3.34215 13.6518C3.99527 12.4119 4.64943 11.1731 5.30256 9.93313C5.85365 8.88758 6.4037 7.84149 6.95428 6.7954C7.31114 6.11722 7.64832 5.42697 8.02952 4.76472C8.40866 4.10576 8.92505 3.57091 9.52068 3.12611C10.3095 2.53745 11.1796 2.15251 12.1399 2.04488C14.4877 1.78184 16.3606 2.67583 17.7373 4.70651C17.9896 5.07827 18.1724 5.5022 18.3863 5.90306C19.055 7.15618 19.7231 8.40984 20.3907 9.6635C20.89 10.6009 21.3883 11.5393 21.8876 12.4772C22.49 13.6084 23.098 14.7364 23.6931 15.872C23.9842 16.4271 24.3183 16.9587 24.527 17.56C25.451 20.2205 24.323 23.1952 21.8575 24.4329C21.2127 24.7569 20.5342 24.9518 19.8272 25.0479C19.1637 25.138 18.5008 25.138 17.8373 25.0633C16.1913 24.8777 14.8819 24.0556 13.8657 22.6872C13.47 22.1546 13.1349 21.5873 12.9821 20.919C12.9261 20.6752 12.8966 20.4275 12.907 20.176C13.2395 20.1678 13.571 20.1447 13.8988 20.0887C14.7825 19.9372 15.6008 19.606 16.3508 19.0855C16.9915 18.6407 17.5358 18.0888 17.9844 17.4326C18.3998 16.8253 18.7095 16.1608 18.9099 15.4392C19.1539 14.5601 19.2342 13.6661 19.1254 12.7568C19.0223 11.893 18.7794 11.0759 18.3739 10.3153C18.0196 9.65142 17.5757 9.06495 17.0334 8.56469C16.5398 8.10947 15.9913 7.74265 15.3879 7.47083C14.6167 7.12323 13.8144 6.93707 12.9748 6.94092C12.9339 6.94092 12.893 6.93927 12.8573 6.96563C12.835 6.94641 12.8138 6.94806 12.7941 6.96947C12.7526 6.93488 12.7029 6.93927 12.6558 6.94202C12.1819 6.96508 11.7162 7.04306 11.2584 7.17649C10.3105 7.45216 9.47251 7.94308 8.74532 8.63883C8.06423 9.29064 7.54007 10.0666 7.18165 10.9649C6.90663 11.653 6.73985 12.3707 6.69945 13.1153C6.64765 14.0642 6.76575 14.9901 7.08583 15.884C7.39038 16.7346 7.83996 17.487 8.43093 18.1432C8.83078 18.5874 9.28346 18.9636 9.7869 19.27C10.3287 19.6 10.901 19.8471 11.5106 19.997C11.9291 20.1008 12.3554 20.1442 12.7822 20.1799Z" fill="#1F8B4F"/>
<path d="M12.8574 6.96618C12.8932 6.93982 12.9341 6.94146 12.975 6.94146C13.8146 6.93762 14.6169 7.12432 15.3881 7.47137C15.9915 7.74319 16.54 8.11001 17.0336 8.56524C17.5759 9.0655 18.0198 9.65197 18.374 10.3159C18.7796 11.0764 19.0225 11.8935 19.1256 12.7573C19.2338 13.6667 19.154 14.5606 18.9101 15.4398C18.7096 16.1614 18.3999 16.8258 17.9845 17.4331C17.536 18.0893 16.9922 18.6412 16.3509 19.086C15.601 19.6066 14.7826 19.9377 13.899 20.0893C13.5706 20.1458 13.2391 20.1689 12.9071 20.1766C12.9341 19.5132 13.1728 18.9323 13.5235 18.3947C13.8752 17.8549 14.3025 17.3815 14.7065 16.8878C15.1436 16.353 15.5502 15.7989 15.7978 15.1328C16.0438 14.4711 16.1474 13.7847 16.1054 13.0752C16.0096 11.4559 15.3995 10.0468 14.5122 8.75579C14.044 8.07432 13.481 7.48785 12.8574 6.96618Z" fill="#6DB56A"/>
<path d="M12.7821 20.18C12.3548 20.1437 11.9291 20.1009 11.5106 19.9976C10.901 19.8477 10.3286 19.6006 9.78687 19.2706C9.28395 18.9642 8.83075 18.588 8.4309 18.1438C7.83992 17.487 7.39035 16.7353 7.0858 15.8847C6.76571 14.9907 6.64762 14.0648 6.69941 13.116C6.73981 12.3713 6.90659 11.6536 7.18162 10.9656C7.54055 10.0672 8.06471 9.29126 8.74529 8.63945C9.47248 7.9437 10.3105 7.45278 11.2583 7.17711C11.7162 7.04368 12.1818 6.9657 12.6557 6.94264C12.7034 6.94044 12.7526 6.93605 12.794 6.97009C12.504 7.26552 12.2139 7.56151 11.9519 7.88659C10.9553 9.12323 10.239 10.5142 9.9003 12.1077C9.67137 13.1851 9.70089 14.2499 10.1049 15.2839C10.325 15.8468 10.6586 16.3322 11.0175 16.8017C11.3961 17.297 11.8011 17.7709 12.1409 18.2992C12.4196 18.7325 12.6418 19.1937 12.735 19.7148C12.7635 19.8686 12.778 20.0235 12.7821 20.18Z" fill="#6DB56A"/>
<path d="M38.8189 21.8017C38.8189 23.8176 37.4945 25.164 35.4942 25.164H33.2235C33.1153 25.164 33.0526 25.097 33.0526 24.9922V18.6206C33.0526 18.5157 33.1158 18.4487 33.2235 18.4487H35.4942C37.4945 18.4487 38.8189 19.7859 38.8189 21.8017ZM37.5577 21.8209C37.5577 20.4931 36.7647 19.6145 35.4403 19.6145H34.2962V23.9993H35.4403C36.7647 23.9988 37.5577 23.1295 37.5577 21.8209Z" fill="black"/>
<path d="M46.3869 24.18V24.9922C46.3869 25.097 46.3237 25.164 46.2248 25.164H42.1885C42.0802 25.164 42.0176 25.097 42.0176 24.9922V18.6206C42.0176 18.5157 42.0808 18.4487 42.1885 18.4487H46.1891C46.2973 18.4487 46.3605 18.5157 46.3605 18.6206V19.4322C46.3605 19.547 46.2973 19.614 46.1891 19.614H43.2606V21.19H45.8193C45.9275 21.19 45.9907 21.257 45.9907 21.3712V22.1834C45.9907 22.2882 45.9275 22.3552 45.8193 22.3552H43.2606V24.0076H46.2248C46.3237 24.0081 46.3869 24.0652 46.3869 24.18Z" fill="black"/>
<path d="M49.2518 24.5526C49.1705 24.4857 49.1529 24.3808 49.2067 24.2753L49.6392 23.5494C49.6843 23.4538 49.7744 23.4346 49.8645 23.5016C50.3959 23.9124 50.9817 24.1035 51.5945 24.1035C52.1621 24.1035 52.5858 23.8454 52.5858 23.3012C52.5858 22.7663 52.2253 22.5275 51.2796 22.2501C50.2074 21.9349 49.3694 21.4956 49.3694 20.3205C49.3694 19.136 50.2882 18.3623 51.6488 18.3623C52.4957 18.3623 53.1623 18.5918 53.6403 18.9449C53.7305 19.0119 53.7305 19.1075 53.6761 19.1931L53.2886 19.8713C53.2348 19.9762 53.1353 19.9954 53.0452 19.9284C52.649 19.661 52.2072 19.5083 51.6395 19.5083C51.0631 19.5083 50.6306 19.7379 50.6306 20.2343C50.6306 20.7214 51.0449 20.874 51.9192 21.1513C52.9914 21.4858 53.8206 21.9251 53.8206 23.215C53.8206 24.4664 52.9287 25.2495 51.5769 25.2495C50.5943 25.2495 49.8376 24.9919 49.2518 24.5526Z" fill="black"/>
<path d="M62.2535 25.1637H61.2897C61.1995 25.1637 61.1363 25.116 61.1006 25.0204L60.65 23.8645H57.938L57.4874 25.0204C57.4512 25.116 57.3885 25.1637 57.2984 25.1637H56.3345C56.2081 25.1637 56.1543 25.0874 56.1993 24.9633L58.8393 18.5824C58.8662 18.4967 58.9475 18.449 59.0376 18.449H59.5784C59.6685 18.449 59.7405 18.4967 59.7767 18.5824L62.3898 24.9633C62.4338 25.0874 62.3799 25.1637 62.2535 25.1637ZM58.3343 22.747H60.2532L59.2982 20.3204L58.3343 22.747Z" fill="black"/>
<path d="M70.0372 25.164H68.9469C68.8656 25.164 68.7936 25.1261 68.7486 25.0493L67.5863 23.2437H67.433H66.496V24.9916C66.496 25.0965 66.4328 25.1635 66.3339 25.1635H65.4239C65.3156 25.1635 65.253 25.0965 65.253 24.9916V18.6206C65.253 18.5157 65.3161 18.4487 65.4239 18.4487H67.5143C69.0552 18.4487 70.0823 19.3751 70.0823 20.8748C70.0823 21.8303 69.6228 22.5562 68.8387 22.9477L70.1542 24.9537C70.2268 25.0778 70.1724 25.164 70.0372 25.164ZM66.4965 22.0884H67.4066C68.2446 22.0884 68.7941 21.6106 68.7941 20.8753C68.7941 20.0731 68.2353 19.6046 67.4159 19.6046H66.4971V22.0884H66.4965Z" fill="black"/>
<path d="M78.0918 25.164H77.0016C76.9203 25.164 76.8483 25.1261 76.8032 25.0493L75.6409 23.2437H75.4876H74.5507V24.9916C74.5507 25.0965 74.4875 25.1635 74.3886 25.1635H73.4785C73.3703 25.1635 73.3076 25.0965 73.3076 24.9916V18.6206C73.3076 18.5157 73.3708 18.4487 73.4785 18.4487H75.5689C77.1098 18.4487 78.1369 19.3751 78.1369 20.8748C78.1369 21.8303 77.6775 22.5562 76.8933 22.9477L78.2089 24.9537C78.2814 25.0778 78.2275 25.164 78.0918 25.164ZM74.5512 22.0884H75.4612C76.2992 22.0884 76.8488 21.6106 76.8488 20.8753C76.8488 20.0731 76.2904 19.6046 75.4705 19.6046H74.5517V22.0884H74.5512Z" fill="black"/>
<path d="M80.9032 21.8207C80.9032 19.8718 82.3177 18.3628 84.2548 18.3628C86.1738 18.3628 87.5707 19.8339 87.5707 21.8207C87.5707 23.7882 86.1743 25.25 84.2548 25.25C82.3177 25.2494 80.9032 23.7596 80.9032 21.8207ZM86.3002 21.8207C86.3002 20.5406 85.4259 19.5852 84.2548 19.5852C83.0563 19.5852 82.1737 20.55 82.1737 21.8207C82.1737 23.0815 83.0568 24.0369 84.2548 24.0369C85.4259 24.0364 86.3002 23.0908 86.3002 21.8207Z" fill="black"/>
<path d="M95.0575 24.18V24.9922C95.0575 25.097 94.9943 25.164 94.8861 25.164H90.9217C90.8135 25.164 90.7508 25.097 90.7508 24.9922V18.6206C90.7508 18.5157 90.814 18.4487 90.9217 18.4487H91.8318C91.9307 18.4487 91.9939 18.5157 91.9939 18.6206V24.0081H94.8861C94.9943 24.0081 95.0575 24.0652 95.0575 24.18Z" fill="black"/>
<path d="M102.239 24.18V24.9922C102.239 25.097 102.176 25.164 102.068 25.164H98.1035C97.9953 25.164 97.9326 25.097 97.9326 24.9922V18.6206C97.9326 18.5157 97.9958 18.4487 98.1035 18.4487H99.0136C99.1125 18.4487 99.1757 18.5157 99.1757 18.6206V24.0081H102.068C102.176 24.0081 102.239 24.0652 102.239 24.18Z" fill="black"/>
<path d="M104.481 21.8207C104.481 19.8718 105.896 18.3628 107.833 18.3628C109.752 18.3628 111.149 19.8339 111.149 21.8207C111.149 23.7882 109.753 25.25 107.833 25.25C105.896 25.2494 104.481 23.7596 104.481 21.8207ZM109.878 21.8207C109.878 20.5406 109.005 19.5852 107.833 19.5852C106.635 19.5852 105.752 20.55 105.752 21.8207C105.752 23.0815 106.635 24.0369 107.833 24.0369C109.005 24.0364 109.878 23.0908 109.878 21.8207Z" fill="black"/>
<path d="M113.546 24.5526C113.466 24.4857 113.448 24.3808 113.501 24.2753L113.934 23.5494C113.979 23.4538 114.069 23.4346 114.159 23.5016C114.691 23.9124 115.276 24.1035 115.889 24.1035C116.457 24.1035 116.88 23.8454 116.88 23.3012C116.88 22.7663 116.52 22.5275 115.574 22.2501C114.502 21.9349 113.664 21.4956 113.664 20.3205C113.664 19.136 114.583 18.3623 115.944 18.3623C116.79 18.3623 117.457 18.5918 117.935 18.9449C118.025 19.0119 118.025 19.1075 117.971 19.1931L117.583 19.8713C117.529 19.9762 117.43 19.9954 117.34 19.9284C116.944 19.661 116.502 19.5083 115.934 19.5083C115.358 19.5083 114.925 19.7379 114.925 20.2343C114.925 20.7214 115.34 20.874 116.214 21.1513C117.286 21.4858 118.115 21.9251 118.115 23.215C118.115 24.4664 117.223 25.2495 115.872 25.2495C114.889 25.2495 114.132 24.9919 113.546 24.5526Z" fill="black"/>
</svg>
