<svg width="159" height="36" viewBox="0 0 159 36" fill="none" xmlns="http://www.w3.org/2000/svg">
<path d="M51.2972 16.0864V17.6595C51.2972 17.8636 51.171 17.9926 50.9551 17.9926H43.0277C42.8118 17.9926 42.6855 17.8629 42.6855 17.6595V5.31498C42.6855 5.11161 42.8118 4.98193 43.0277 4.98193H44.8473C45.0452 4.98193 45.1714 5.11161 45.1714 5.31498V15.7534H50.9544C51.1717 15.7534 51.2972 15.8646 51.2972 16.0864Z" fill="white"/>
<path d="M65.5119 17.9933H63.584C63.404 17.9933 63.2777 17.9012 63.2053 17.7162L62.3045 15.4763H56.8816L55.9808 17.7162C55.909 17.9012 55.7821 17.9933 55.6021 17.9933H53.6742C53.4217 17.9933 53.3135 17.8452 53.4038 17.605L58.6825 5.24128C58.7363 5.07476 58.8984 4.98193 59.0792 4.98193H60.16C60.34 4.98193 60.4842 5.07476 60.5566 5.24128L65.7809 17.605C65.8726 17.8452 65.7643 17.9933 65.5119 17.9933ZM57.6748 13.3108H61.5119L59.6027 8.60998L57.6748 13.3108Z" fill="white"/>
<path d="M80.6993 5.31498V17.6595C80.6993 17.8813 80.5731 17.9926 80.3572 17.9926H79.344C79.1639 17.9926 78.9674 17.7658 78.9674 17.7658L71.7456 9.44188V17.6595C71.7456 17.8636 71.6193 17.9926 71.4034 17.9926H69.6377C69.439 17.9926 69.3135 17.8629 69.3135 17.6595V5.31498C69.3135 5.1109 69.4397 4.98193 69.6377 4.98193H70.6737C70.8537 4.98193 71.0068 5.18389 71.0068 5.18389L78.2486 13.5326V5.31498C78.2486 5.11161 78.3749 4.98193 78.5728 4.98193H80.3566C80.5731 4.98193 80.6993 5.11161 80.6993 5.31498Z" fill="white"/>
<path d="M97.1296 11.4784C97.1296 15.3835 94.4816 17.9933 90.4817 17.9933H85.9417C85.7258 17.9933 85.5996 17.8636 85.5996 17.6602V5.31498C85.5996 5.11161 85.7258 4.98193 85.9417 4.98193H90.4817C94.481 4.98193 97.1296 7.57258 97.1296 11.4784ZM94.6072 11.5152C94.6072 8.94231 93.0221 7.23954 90.3734 7.23954H88.0855V15.735H90.3734C93.0221 15.735 94.6072 14.0506 94.6072 11.5152Z" fill="white"/>
<path d="M110.876 17.9933H108.695C108.533 17.9933 108.389 17.9196 108.299 17.7715L105.975 14.2731H105.669H103.794V17.6602C103.794 17.8643 103.668 17.9933 103.47 17.9933H101.651C101.435 17.9933 101.309 17.8636 101.309 17.6602V5.31498C101.309 5.11161 101.435 4.98193 101.651 4.98193H105.831C108.911 4.98193 110.965 6.77753 110.965 9.6828C110.965 11.5337 110.046 12.9402 108.479 13.6992L111.11 17.5858C111.254 17.8268 111.146 17.9933 110.876 17.9933ZM103.795 12.0332H105.615C107.29 12.0332 108.39 11.1078 108.39 9.6828C108.39 8.12813 107.272 7.22112 105.633 7.22112H103.796V12.0332H103.795Z" fill="white"/>
<path d="M125.882 17.9933H123.954C123.774 17.9933 123.648 17.9012 123.575 17.7162L122.675 15.4763H117.252L116.351 17.7162C116.279 17.9012 116.153 17.9933 115.973 17.9933H114.045C113.793 17.9933 113.684 17.8452 113.775 17.605L119.053 5.24128C119.107 5.07476 119.27 4.98193 119.45 4.98193H120.531C120.711 4.98193 120.855 5.07476 120.927 5.24128L126.152 17.605C126.243 17.8452 126.134 17.9933 125.882 17.9933ZM118.045 13.3108H121.882L119.973 8.60998L118.045 13.3108Z" fill="white"/>
<path d="M141.196 11.4784C141.196 15.3835 138.547 17.9933 134.548 17.9933H130.008C129.792 17.9933 129.666 17.8636 129.666 17.6602V5.31498C129.666 5.11161 129.792 4.98193 130.008 4.98193H134.548C138.548 4.98193 141.196 7.57258 141.196 11.4784ZM138.674 11.5152C138.674 8.94231 137.088 7.23954 134.44 7.23954H132.152V15.735H134.44C137.088 15.735 138.674 14.0506 138.674 11.5152Z" fill="white"/>
<path d="M155.699 17.9933H153.771C153.591 17.9933 153.465 17.9012 153.393 17.7162L152.492 15.4763H147.069L146.168 17.7162C146.097 17.9012 145.97 17.9933 145.79 17.9933H143.862C143.609 17.9933 143.502 17.8452 143.592 17.605L148.87 5.24128C148.924 5.07476 149.086 4.98193 149.267 4.98193H150.348C150.528 4.98193 150.672 5.07476 150.744 5.24128L155.969 17.605C156.06 17.8452 155.951 17.9933 155.699 17.9933ZM147.862 13.3108H151.699L149.789 8.60998L147.862 13.3108Z" fill="white"/>
<path d="M15.7384 9.42412C15.7646 9.39578 15.7928 9.39365 15.8225 9.41916C16.6544 10.0938 17.4055 10.8527 18.0304 11.7335C19.2141 13.4029 20.0287 15.224 20.1563 17.318C20.2122 18.2349 20.0735 19.1228 19.7452 19.978C19.4148 20.839 18.8719 21.5554 18.2891 22.247C17.7504 22.8854 17.1806 23.4977 16.7109 24.1956C16.2433 24.8915 15.9246 25.6419 15.8887 26.5C15.8742 26.8253 15.9142 27.1456 15.9887 27.4609C16.1929 28.3254 16.6399 29.0588 17.1675 29.7475C18.5243 31.5176 20.2708 32.5798 22.467 32.82C23.3519 32.9164 24.2369 32.9164 25.1219 32.8002C26.0648 32.6762 26.9704 32.4239 27.8313 32.0051C31.1207 30.4044 32.6258 26.5588 31.3932 23.1186C31.1145 22.3412 30.6689 21.6532 30.2806 20.9361C29.4867 19.4678 28.6755 18.0095 27.8713 16.547C27.2049 15.3346 26.54 14.1214 25.8737 12.909C24.9825 11.2885 24.0907 9.66788 23.1988 8.04731C22.9132 7.52932 22.6691 6.98086 22.3332 6.50043C20.4963 3.87506 17.9973 2.71862 14.8644 3.05875C13.5829 3.19764 12.4213 3.69578 11.3694 4.45682C10.5748 5.03221 9.88505 5.7238 9.37946 6.57554C8.8711 7.43153 8.42138 8.32437 7.94475 9.20091C7.21016 10.5529 6.47625 11.9056 5.74097 13.2577C4.86911 14.8605 3.99655 16.4627 3.12538 18.0655C2.38803 19.4218 1.65619 20.7816 0.914697 22.1357C0.0552544 23.7053 -0.221331 25.3776 0.182179 27.1257C0.78641 29.744 2.39493 31.4595 4.85186 32.3346C6.3583 32.8718 7.91439 32.9497 9.48912 32.7393C10.9549 32.5437 12.2544 31.9697 13.3566 30.9507C14.2305 30.1436 14.9562 29.2189 15.4176 28.0965C15.6259 27.5891 15.7404 27.0591 15.7218 26.5043C15.7163 26.3023 15.697 26.1018 15.6597 25.9027C15.5349 25.2288 15.2383 24.6329 14.8665 24.0723C14.4133 23.3893 13.8732 22.777 13.3676 22.1364C12.8889 21.5292 12.4434 20.9014 12.1495 20.1743C11.6101 18.8372 11.5708 17.4611 11.8764 16.068C12.3282 14.0074 13.2842 12.2089 14.614 10.6103C14.9644 10.1887 15.3507 9.80677 15.7384 9.42412Z" fill="white"/>
<path d="M15.7218 26.5035C15.7404 27.0584 15.6266 27.5877 15.4176 28.0958C14.9562 29.2182 14.2305 30.1422 13.3566 30.95C12.2544 31.9683 10.9549 32.543 9.48912 32.7385C7.91439 32.949 6.3583 32.871 4.85186 32.3339C2.39562 31.4588 0.78641 29.744 0.182179 27.125C-0.221331 25.3762 0.0552544 23.7046 0.914697 22.135C1.65619 20.7809 2.38803 19.4211 3.12538 18.0648C3.99655 16.4619 4.8698 14.8598 5.74097 13.2569C6.47625 11.9049 7.21016 10.5529 7.94475 9.20018C8.42069 8.32364 8.8711 7.4308 9.37946 6.57481C9.88505 5.72307 10.5748 5.03147 11.3694 4.45609C12.422 3.69434 13.5829 3.1969 14.8644 3.05802C17.9973 2.71789 20.4963 3.87433 22.3332 6.4997C22.6691 6.98013 22.9139 7.52859 23.1988 8.04658C24.0907 9.66715 24.9825 11.287 25.8737 12.9083C26.54 14.1207 27.2049 15.3338 27.8713 16.5463C28.6748 18.0088 29.486 19.4671 30.2806 20.9353C30.6689 21.6532 31.1145 22.3405 31.3932 23.1178C32.6258 26.5581 31.1207 30.4037 27.8313 32.0044C26.9704 32.4232 26.0655 32.6755 25.1219 32.7995C24.2369 32.9164 23.3519 32.9164 22.467 32.8193C20.2708 32.5798 18.5236 31.5169 17.1675 29.7468C16.6399 29.058 16.1929 28.3246 15.9887 27.4602C15.9142 27.1448 15.8742 26.8245 15.8887 26.4993C16.3322 26.4887 16.7744 26.4589 17.2124 26.3866C18.3912 26.1903 19.4831 25.763 20.4846 25.0892C21.3399 24.5138 22.0662 23.8002 22.6642 22.952C23.2181 22.1669 23.632 21.3074 23.8989 20.3748C24.2245 19.2382 24.3314 18.0825 24.1866 16.9069C24.0493 15.7902 23.7251 14.7337 23.1836 13.7501C22.7112 12.892 22.1187 12.1331 21.3951 11.4868C20.7364 10.898 20.0045 10.4239 19.1989 10.0725C18.1698 9.62322 17.0993 9.38229 15.9791 9.38725C15.9246 9.38725 15.8701 9.38513 15.8225 9.41914C15.7928 9.39434 15.7646 9.39575 15.7384 9.4241C15.6825 9.37946 15.617 9.38513 15.5535 9.38796C14.921 9.41772 14.3002 9.51905 13.6891 9.69124C12.4241 10.0477 11.306 10.6819 10.3355 11.5818C9.42704 12.4243 8.72762 13.4277 8.24893 14.5891C7.88198 15.4784 7.65987 16.4067 7.60538 17.3689C7.5364 18.5962 7.69368 19.7924 8.12064 20.9488C8.52691 22.0486 9.12701 23.0208 9.9154 23.8697C10.4493 24.4443 11.0528 24.9304 11.7246 25.3265C12.4475 25.7531 13.2111 26.0727 14.025 26.2669C14.5837 26.4008 15.1521 26.4568 15.7218 26.5035Z" fill="white"/>
<path d="M15.8223 9.41917C15.8699 9.38516 15.925 9.38728 15.9788 9.38728C17.099 9.38232 18.1695 9.62325 19.1986 10.0725C20.0043 10.424 20.7354 10.898 21.3948 11.4869C22.1184 12.1331 22.7109 12.892 23.1834 13.7501C23.7249 14.7337 24.049 15.7902 24.1863 16.907C24.3312 18.0825 24.2242 19.2383 23.8987 20.3749C23.6311 21.3074 23.2179 22.1669 22.664 22.9521C22.066 23.8002 21.3397 24.5138 20.4844 25.0892C19.4835 25.7624 18.3916 26.1904 17.2121 26.3866C16.7741 26.4596 16.332 26.4894 15.8885 26.4993C15.9243 25.6419 16.243 24.8908 16.7107 24.1949C17.1804 23.497 17.7501 22.8847 18.2889 22.2463C18.8724 21.5554 19.4145 20.8383 19.7449 19.9773C20.0733 19.1221 20.2119 18.2342 20.156 17.3172C20.0284 15.2233 19.2145 13.4015 18.0302 11.7328C17.4053 10.852 16.6541 10.0938 15.8223 9.41917Z" fill="#1F8B4F"/>
<path d="M15.7219 26.5035C15.1521 26.4567 14.5838 26.4014 14.025 26.2675C13.2118 26.0734 12.4476 25.7545 11.7247 25.3272C11.0536 24.9304 10.4493 24.4443 9.91546 23.8703C9.12706 23.0214 8.52697 22.0492 8.1207 20.9494C7.69374 19.7937 7.53646 18.5969 7.60543 17.3696C7.65924 16.4066 7.88203 15.479 8.24899 14.5897C8.72768 13.4283 9.4271 12.425 10.3355 11.5824C11.306 10.6825 12.4241 10.0483 13.6891 9.69189C14.3003 9.51969 14.9211 9.41836 15.5536 9.3886C15.617 9.38577 15.6825 9.3801 15.7384 9.42474C15.3515 9.80668 14.9645 10.1893 14.6148 10.6095C13.2849 12.2081 12.3296 14.0066 11.8771 16.0672C11.5716 17.4603 11.6109 18.8364 12.1503 20.1735C12.4441 20.9013 12.889 21.5291 13.3684 22.1356C13.874 22.7762 14.4141 23.3885 14.8672 24.0716C15.239 24.6321 15.5356 25.228 15.6605 25.9019C15.697 26.1003 15.7163 26.3015 15.7219 26.5035Z" fill="#6DB56A"/>
<path d="M50.3647 28.5501C50.3647 31.1514 48.6009 32.8889 45.9371 32.8889H42.9132C42.769 32.8889 42.6855 32.8024 42.6855 32.6671V24.4452C42.6855 24.3098 42.7697 24.2234 42.9132 24.2234H45.9371C48.6009 24.2234 50.3647 25.9495 50.3647 28.5501ZM48.6844 28.5749C48.6844 26.8615 47.6284 25.7278 45.8647 25.7278H44.341V31.3859H45.8647C47.6291 31.3852 48.6844 30.2635 48.6844 28.5749Z" fill="white"/>
<path d="M60.4427 31.6198V32.6678C60.4427 32.8031 60.3585 32.8896 60.2268 32.8896H54.8515C54.7073 32.8896 54.6239 32.8031 54.6239 32.6678V24.4452C54.6239 24.3098 54.708 24.2234 54.8515 24.2234H60.1792C60.3234 24.2234 60.4075 24.3098 60.4075 24.4452V25.4925C60.4075 25.6406 60.3234 25.727 60.1792 25.727H56.2793V27.7607H59.6867C59.8309 27.7607 59.915 27.8472 59.915 27.9946V29.0426C59.915 29.1779 59.8309 29.2644 59.6867 29.2644H56.2793V31.3966H60.2268C60.3592 31.3973 60.4427 31.4717 60.4427 31.6198Z" fill="white"/>
<path d="M64.2584 32.1001C64.1501 32.0137 64.1267 31.8783 64.1984 31.7423L64.7743 30.8055C64.8344 30.6822 64.9544 30.6574 65.0744 30.7439C65.7821 31.2739 66.5622 31.5205 67.3782 31.5205C68.1342 31.5205 68.6984 31.1875 68.6984 30.4852C68.6984 29.7951 68.2183 29.4868 66.9588 29.129C65.531 28.7222 64.415 28.1553 64.415 26.6389C64.415 25.1105 65.6386 24.1121 67.4506 24.1121C68.5784 24.1121 69.4661 24.4083 70.1028 24.8639C70.2228 24.9503 70.2228 25.0736 70.1503 25.1842L69.6344 26.0593C69.5627 26.1946 69.4303 26.2194 69.3102 26.133C68.7826 25.7879 68.1942 25.5909 67.4382 25.5909C66.6705 25.5909 66.0946 25.8871 66.0946 26.5277C66.0946 27.1562 66.6464 27.3532 67.8107 27.711C69.2385 28.1426 70.3428 28.7095 70.3428 30.374C70.3428 31.9889 69.155 32.9993 67.3548 32.9993C66.0463 33.0001 65.0385 32.667 64.2584 32.1001Z" fill="white"/>
<path d="M81.5728 32.8889H80.2892C80.1692 32.8889 80.085 32.8273 80.0375 32.704L79.4373 31.2124H75.8258L75.2257 32.704C75.1774 32.8273 75.0939 32.8889 74.9739 32.8889H73.6903C73.522 32.8889 73.4502 32.7904 73.5102 32.6303L77.0259 24.3963C77.0618 24.2858 77.1701 24.2241 77.2901 24.2241H78.0102C78.1303 24.2241 78.2261 24.2858 78.2744 24.3963L81.7542 32.6303C81.8129 32.7904 81.7405 32.8889 81.5728 32.8889ZM76.3534 29.7703H78.909L77.6371 26.639L76.3534 29.7703Z" fill="white"/>
<path d="M91.9387 32.8889H90.4868C90.3785 32.8889 90.2826 32.84 90.2226 32.7408L88.6748 30.4109H88.4706H87.2228V32.6664C87.2228 32.8017 87.1387 32.8882 87.0069 32.8882H85.795C85.6509 32.8882 85.5674 32.8017 85.5674 32.6664V24.4452C85.5674 24.3098 85.6516 24.2234 85.795 24.2234H88.5789C90.6309 24.2234 91.9987 25.4188 91.9987 27.354C91.9987 28.587 91.3869 29.5237 90.3426 30.029L92.0946 32.6175C92.1905 32.7783 92.1187 32.8889 91.9387 32.8889ZM87.2235 28.92H88.4354C89.5514 28.92 90.2833 28.3035 90.2833 27.3547C90.2833 26.3194 89.539 25.715 88.4478 25.715H87.2242V28.92H87.2235Z" fill="white"/>
<path d="M102.665 32.8889H101.213C101.105 32.8889 101.009 32.84 100.949 32.7408L99.4013 30.4109H99.1971H97.9494V32.6664C97.9494 32.8017 97.8652 32.8882 97.7335 32.8882H96.5216C96.3774 32.8882 96.2939 32.8017 96.2939 32.6664V24.4452C96.2939 24.3098 96.3781 24.2234 96.5216 24.2234H99.3054C101.357 24.2234 102.725 25.4188 102.725 27.354C102.725 28.587 102.113 29.5237 101.069 30.029L102.821 32.6175C102.918 32.7783 102.845 32.8889 102.665 32.8889ZM97.95 28.92H99.1619C100.278 28.92 101.01 28.3035 101.01 27.3547C101.01 26.3194 100.266 25.715 99.1737 25.715H97.95V28.92Z" fill="white"/>
<path d="M106.409 28.5749C106.409 26.06 108.293 24.1128 110.873 24.1128C113.428 24.1128 115.288 26.0111 115.288 28.5749C115.288 31.1138 113.429 33.0001 110.873 33.0001C108.293 33.0001 106.409 31.0769 106.409 28.5749ZM113.596 28.5749C113.596 26.9231 112.432 25.6901 110.873 25.6901C109.277 25.6901 108.101 26.9352 108.101 28.5749C108.101 30.2018 109.277 31.4348 110.873 31.4348C112.432 31.4348 113.596 30.2146 113.596 28.5749Z" fill="white"/>
<path d="M125.26 31.6198V32.6678C125.26 32.8031 125.175 32.8896 125.031 32.8896H119.752C119.608 32.8896 119.524 32.8031 119.524 32.6678V24.4452C119.524 24.3098 119.608 24.2234 119.752 24.2234H120.964C121.095 24.2234 121.18 24.3098 121.18 24.4452V31.3973H125.031C125.175 31.3973 125.26 31.4717 125.26 31.6198Z" fill="white"/>
<path d="M134.822 31.6198V32.6678C134.822 32.8031 134.737 32.8896 134.594 32.8896H129.315C129.17 32.8896 129.087 32.8031 129.087 32.6678V24.4452C129.087 24.3098 129.171 24.2234 129.315 24.2234H130.527C130.658 24.2234 130.742 24.3098 130.742 24.4452V31.3973H134.594C134.738 31.3973 134.822 31.4717 134.822 31.6198Z" fill="white"/>
<path d="M137.81 28.5749C137.81 26.06 139.693 24.1128 142.273 24.1128C144.829 24.1128 146.689 26.0111 146.689 28.5749C146.689 31.1138 144.829 33.0001 142.273 33.0001C139.693 33.0001 137.81 31.0769 137.81 28.5749ZM144.997 28.5749C144.997 26.9231 143.833 25.6901 142.273 25.6901C140.677 25.6901 139.502 26.9352 139.502 28.5749C139.502 30.2018 140.678 31.4348 142.273 31.4348C143.833 31.4348 144.997 30.2146 144.997 28.5749Z" fill="white"/>
<path d="M149.881 32.1001C149.774 32.0137 149.749 31.8783 149.821 31.7423L150.397 30.8055C150.457 30.6822 150.577 30.6574 150.697 30.7439C151.405 31.2739 152.185 31.5205 153.001 31.5205C153.757 31.5205 154.321 31.1875 154.321 30.4852C154.321 29.7951 153.841 29.4868 152.582 29.129C151.154 28.7222 150.038 28.1553 150.038 26.6389C150.038 25.1105 151.261 24.1121 153.073 24.1121C154.201 24.1121 155.089 24.4083 155.726 24.8639C155.846 24.9503 155.846 25.0736 155.773 25.1842L155.257 26.0593C155.185 26.1946 155.053 26.2194 154.933 26.133C154.405 25.7879 153.817 25.5909 153.061 25.5909C152.293 25.5909 151.717 25.8871 151.717 26.5277C151.717 27.1562 152.269 27.3532 153.433 27.711C154.861 28.1426 155.966 28.7095 155.966 30.374C155.966 31.9889 154.778 32.9993 152.978 32.9993C151.669 33.0001 150.661 32.667 149.881 32.1001Z" fill="white"/>
</svg>
