<svg width="12" height="14" viewBox="0 0 12 14" fill="none" xmlns="http://www.w3.org/2000/svg">
<path d="M6 12.383C7.54074 11.1915 8.7037 10.0461 9.48889 8.94681C10.2741 7.84752 10.6667 6.82269 10.6667 5.87234C10.6667 5.03546 10.5074 4.32624 10.1889 3.74468C9.87037 3.16312 9.47778 2.68794 9.01111 2.31915C8.54445 1.95035 8.03704 1.6844 7.48889 1.52128C6.94074 1.35816 6.44445 1.2766 6 1.2766C5.55556 1.2766 5.05926 1.35816 4.51111 1.52128C3.96296 1.6844 3.45556 1.95035 2.98889 2.31915C2.52222 2.68794 2.12963 3.16312 1.81111 3.74468C1.49259 4.32624 1.33333 5.03546 1.33333 5.87234C1.33333 6.82269 1.72593 7.84752 2.51111 8.94681C3.2963 10.0461 4.45926 11.1915 6 12.383ZM6 14C3.97037 12.539 2.46296 11.1418 1.47778 9.80851C0.492593 8.47518 0 7.16312 0 5.87234C0 4.9078 0.181482 4.06028 0.544445 3.32979C0.907408 2.59929 1.37778 1.98582 1.95556 1.48936C2.53333 0.992908 3.17778 0.620567 3.88889 0.37234C4.6 0.124113 5.3037 0 6 0C6.6963 0 7.4 0.124113 8.11111 0.37234C8.82222 0.620567 9.46667 0.992908 10.0444 1.48936C10.6222 1.98582 11.0926 2.59929 11.4556 3.32979C11.8185 4.06028 12 4.9078 12 5.87234C12 7.16312 11.5074 8.47518 10.5222 9.80851C9.53704 11.1418 8.02963 12.539 6 14ZM6 7.23404C6.42963 7.23404 6.7963 7.08865 7.1 6.79787C7.40371 6.50709 7.55556 6.15603 7.55556 5.74468C7.55556 5.33333 7.40371 4.98227 7.1 4.69149C6.7963 4.40071 6.42963 4.25532 6 4.25532C5.57037 4.25532 5.2037 4.40071 4.9 4.69149C4.5963 4.98227 4.44445 5.33333 4.44445 5.74468C4.44445 6.15603 4.5963 6.50709 4.9 6.79787C5.2037 7.08865 5.57037 7.23404 6 7.23404Z" fill="#00B451"/>
</svg>
