<svg width="18" height="18" viewBox="0 0 18 18" fill="none" xmlns="http://www.w3.org/2000/svg">
<path d="M9 14.383C10.5407 13.1915 11.7037 12.0461 12.4889 10.9468C13.2741 9.84752 13.6667 8.82269 13.6667 7.87234C13.6667 7.03546 13.5074 6.32624 13.1889 5.74468C12.8704 5.16312 12.4778 4.68794 12.0111 4.31915C11.5444 3.95035 11.037 3.6844 10.4889 3.52128C9.94074 3.35816 9.44445 3.2766 9 3.2766C8.55556 3.2766 8.05926 3.35816 7.51111 3.52128C6.96296 3.6844 6.45556 3.95035 5.98889 4.31915C5.52222 4.68794 5.12963 5.16312 4.81111 5.74468C4.49259 6.32624 4.33333 7.03546 4.33333 7.87234C4.33333 8.82269 4.72593 9.84752 5.51111 10.9468C6.2963 12.0461 7.45926 13.1915 9 14.383ZM9 16C6.97037 14.539 5.46296 13.1418 4.47778 11.8085C3.49259 10.4752 3 9.16312 3 7.87234C3 6.9078 3.18148 6.06028 3.54444 5.32979C3.90741 4.59929 4.37778 3.98582 4.95556 3.48936C5.53333 2.99291 6.17778 2.62057 6.88889 2.37234C7.6 2.12411 8.3037 2 9 2C9.6963 2 10.4 2.12411 11.1111 2.37234C11.8222 2.62057 12.4667 2.99291 13.0444 3.48936C13.6222 3.98582 14.0926 4.59929 14.4556 5.32979C14.8185 6.06028 15 6.9078 15 7.87234C15 9.16312 14.5074 10.4752 13.5222 11.8085C12.537 13.1418 11.0296 14.539 9 16ZM9 9.23404C9.42963 9.23404 9.7963 9.08865 10.1 8.79787C10.4037 8.50709 10.5556 8.15603 10.5556 7.74468C10.5556 7.33333 10.4037 6.98227 10.1 6.69149C9.7963 6.40071 9.42963 6.25532 9 6.25532C8.57037 6.25532 8.2037 6.40071 7.9 6.69149C7.5963 6.98227 7.44445 7.33333 7.44445 7.74468C7.44445 8.15603 7.5963 8.50709 7.9 8.79787C8.2037 9.08865 8.57037 9.23404 9 9.23404Z" fill="#FFF"/>
</svg>
