<svg width="18" height="18" viewBox="0 0 18 18" fill="none" xmlns="http://www.w3.org/2000/svg">
<path d="M13.6039 10.6898C13.1193 10.2051 12.5101 10.2051 12.0255 10.6898C11.6516 11.0636 11.2916 11.4236 10.9178 11.7975C10.8209 11.9083 10.7378 11.9221 10.6132 11.8529C10.3778 11.7283 10.1286 11.6175 9.89321 11.479C8.82708 10.8005 7.92709 9.94202 7.12403 8.95888C6.73635 8.47423 6.37636 7.94805 6.12713 7.36647C6.0856 7.25569 6.09944 7.17261 6.19636 7.07568C6.5702 6.71566 6.93019 6.35564 7.29018 5.98177C7.80248 5.46943 7.80248 4.87401 7.29018 4.36167C6.98558 4.07088 6.70866 3.78009 6.4179 3.48931C6.11329 3.19852 5.82253 2.89389 5.51792 2.6031C5.03331 2.1323 4.42409 2.1323 3.93949 2.6031C3.56565 2.96312 3.20566 3.35084 2.83182 3.71086C2.47183 4.04319 2.29183 4.44475 2.26414 4.91555C2.19491 5.69098 2.38875 6.42487 2.65182 7.13107C3.20566 8.59886 4.03641 9.91432 5.04716 11.119C6.4179 12.7391 8.03786 14.0269 9.94859 14.9546C10.807 15.37 11.6932 15.6885 12.6624 15.7439C13.327 15.7855 13.9085 15.6193 14.3654 15.0931C14.6839 14.7331 15.0439 14.4146 15.3762 14.0823C15.8746 13.5838 15.8746 12.9745 15.3762 12.476C14.7946 11.8806 14.1993 11.2852 13.6039 10.6898Z" fill="#00B451"/>
</svg>
