<svg width="24" height="24" viewBox="0 0 24 24" fill="none" xmlns="http://www.w3.org/2000/svg">
<path d="M18.9277 3H5.15239C3.96556 3 3 3.96556 3 5.15239V18.9277C3 20.1145 3.96556 21.0801 5.15239 21.0801H18.9277C20.1145 21.0801 21.0801 20.1145 21.0801 18.9277V5.15239C21.0801 3.96556 20.1145 3 18.9277 3ZM17.2084 10.8876C17.1106 10.8967 17.0116 10.9027 16.9113 10.9027C15.7822 10.9027 14.7899 10.322 14.2127 9.44426C14.2127 11.7469 14.2127 14.3668 14.2127 14.4107C14.2127 16.4378 12.5691 18.0814 10.542 18.0814C8.51485 18.0814 6.87129 16.4378 6.87129 14.4107C6.87129 12.3836 8.51485 10.74 10.542 10.74C10.6186 10.74 10.6935 10.7469 10.7688 10.7516V12.5605C10.6935 12.5514 10.6195 12.5377 10.542 12.5377C9.50711 12.5377 8.66853 13.3762 8.66853 14.4111C8.66853 15.446 9.50711 16.2846 10.542 16.2846C11.5768 16.2846 12.4907 15.4692 12.4907 14.4344C12.4907 14.3935 12.5088 5.99957 12.5088 5.99957H14.2376C14.4003 7.54542 15.6483 8.76539 17.2084 8.87732V10.8876Z" fill="#E0E0E0"/>
</svg>
