<svg width="14" height="14" viewBox="0 0 14 14" fill="none" xmlns="http://www.w3.org/2000/svg">
<path d="M7 11.1869C8.19835 10.2602 9.10288 9.3693 9.71358 8.51429C10.3243 7.65929 10.6296 6.8622 10.6296 6.12304C10.6296 5.47213 10.5058 4.92052 10.258 4.46819C10.0103 4.01587 9.70493 3.64629 9.34197 3.35945C8.97901 3.07261 8.58436 2.86575 8.15802 2.73888C7.73168 2.61201 7.34567 2.54857 7 2.54857C6.65432 2.54857 6.26831 2.61201 5.84197 2.73888C5.41563 2.86575 5.02098 3.07261 4.65802 3.35945C4.29506 3.64629 3.98971 4.01587 3.74197 4.46819C3.49423 4.92052 3.37037 5.47213 3.37037 6.12304C3.37037 6.8622 3.67572 7.65929 4.28641 8.51429C4.89711 9.3693 5.80164 10.2602 7 11.1869ZM7 12.4446C5.42139 11.3082 4.24897 10.2215 3.48271 9.18451C2.71646 8.14747 2.33333 7.12698 2.33333 6.12304C2.33333 5.37284 2.47448 4.71366 2.75679 4.1455C3.03909 3.57733 3.40493 3.10019 3.85432 2.71406C4.3037 2.32793 4.80493 2.03833 5.35802 1.84526C5.91111 1.6522 6.45843 1.55566 7 1.55566C7.54156 1.55566 8.08888 1.6522 8.64197 1.84526C9.19506 2.03833 9.69629 2.32793 10.1457 2.71406C10.5951 3.10019 10.9609 3.57733 11.2432 4.1455C11.5255 4.71366 11.6667 5.37284 11.6667 6.12304C11.6667 7.12698 11.2835 8.14747 10.5173 9.18451C9.75102 10.2215 8.5786 11.3082 7 12.4446ZM7 7.18214C7.33415 7.18214 7.61934 7.06906 7.85555 6.8429C8.09176 6.61674 8.20987 6.34369 8.20987 6.02375C8.20987 5.70381 8.09176 5.43076 7.85555 5.2046C7.61934 4.97844 7.33415 4.86536 7 4.86536C6.66584 4.86536 6.38065 4.97844 6.14444 5.2046C5.90823 5.43076 5.79012 5.70381 5.79012 6.02375C5.79012 6.34369 5.90823 6.61674 6.14444 6.8429C6.38065 7.06906 6.66584 7.18214 7 7.18214Z" fill="url(#paint0_linear_1199_5333)"/>
<defs>
<linearGradient id="paint0_linear_1199_5333" x1="7" y1="1.55566" x2="7" y2="12.4446" gradientUnits="userSpaceOnUse">
<stop stop-color="#97EB0E"/>
<stop offset="1" stop-color="#19B90B"/>
</linearGradient>
</defs>
</svg>
