<svg width="24" height="24" viewBox="0 0 24 24" fill="none" xmlns="http://www.w3.org/2000/svg">
<path d="M11.9996 3.19995C8.65081 3.19995 4.3043 4.03901 4.3043 4.03901L4.29336 4.05151C2.76814 4.29544 1.59961 5.60605 1.59961 7.19995V12V12.0015V16.8V16.8015C1.6011 17.5627 1.87391 18.2985 2.36905 18.8767C2.86419 19.4549 3.54923 19.8376 4.30117 19.9562L4.3043 19.9609C4.3043 19.9609 8.65081 20.8015 11.9996 20.8015C15.3484 20.8015 19.6949 19.9609 19.6949 19.9609L19.6965 19.9593C20.4492 19.841 21.1351 19.458 21.6306 18.8791C22.1261 18.3002 22.3988 17.5635 22.3996 16.8015V16.8V12.0015V12V7.19995C22.3985 6.43845 22.1259 5.70231 21.6307 5.1238C21.1355 4.54528 20.4503 4.16231 19.698 4.0437L19.6949 4.03901C19.6949 4.03901 15.3484 3.19995 11.9996 3.19995ZM9.59961 8.3187L15.9996 12L9.59961 15.6812V8.3187Z" fill="#E0E0E0"/>
</svg>
